%TF.GenerationSoftware,KiCad,Pcbnew,10.0.0*%
%TF.CreationDate,2026-04-10T13:40:05-05:00*%
%TF.ProjectId,bcd-bus-visualizer,6263642d-6275-4732-9d76-697375616c69,1.0*%
%TF.SameCoordinates,Original*%
%TF.FileFunction,Copper,L2,Bot*%
%TF.FilePolarity,Positive*%
%FSLAX46Y46*%
G04 Gerber Fmt 4.6, Leading zero omitted, Abs format (unit mm)*
G04 Created by KiCad (PCBNEW 10.0.0) date 2026-04-10 13:40:05*
%MOMM*%
%LPD*%
G01*
G04 APERTURE LIST*
%TA.AperFunction,ComponentPad*%
%ADD10R,1.524000X2.524000*%
%TD*%
%TA.AperFunction,ComponentPad*%
%ADD11O,1.524000X2.524000*%
%TD*%
%TA.AperFunction,ComponentPad*%
%ADD12R,1.700000X1.700000*%
%TD*%
%TA.AperFunction,ComponentPad*%
%ADD13C,1.700000*%
%TD*%
%TA.AperFunction,ViaPad*%
%ADD14C,0.600000*%
%TD*%
%TA.AperFunction,Conductor*%
%ADD15C,0.200000*%
%TD*%
G04 APERTURE END LIST*
D10*
%TO.P,U1,1,E_1*%
%TO.N,Net-(U1-E)*%
X62920000Y-42422529D03*
D11*
%TO.P,U1,2,D_2*%
%TO.N,Net-(U1-D)*%
X65460000Y-42422529D03*
%TO.P,U1,3,CC_3*%
%TO.N,GND*%
X68000000Y-42422529D03*
%TO.P,U1,4,C_4*%
%TO.N,Net-(U1-C)*%
X70540000Y-42422529D03*
%TO.P,U1,5,DP_5*%
%TO.N,unconnected-(U1-DP-Pad5)*%
X73080000Y-42422529D03*
%TO.P,U1,6,B_6*%
%TO.N,Net-(U1-B)*%
X73080000Y-27182529D03*
%TO.P,U1,7,A_7*%
%TO.N,Net-(U1-A)*%
X70540000Y-27182529D03*
%TO.P,U1,8,CC_8*%
%TO.N,GND*%
X68000000Y-27182529D03*
%TO.P,U1,9,F_9*%
%TO.N,Net-(U1-F)*%
X65460000Y-27182529D03*
%TO.P,U1,10,G_10*%
%TO.N,Net-(U1-G)*%
X62920000Y-27182529D03*
%TD*%
D12*
%TO.P,J1,1,Pin_1_1*%
%TO.N,GND*%
X66710000Y-31002529D03*
D13*
%TO.P,J1,2,Pin_2_2*%
%TO.N,3V3*%
X69250000Y-31002529D03*
%TO.P,J1,3,Pin_3_3*%
%TO.N,unconnected-(J1-Pin_3-Pad3)*%
X66710000Y-33542529D03*
%TO.P,J1,4,Pin_4_4*%
%TO.N,unconnected-(J1-Pin_4-Pad4)*%
X69250000Y-33542529D03*
%TO.P,J1,5,Pin_5_5*%
%TO.N,/D*%
X66710000Y-36082529D03*
%TO.P,J1,6,Pin_6_6*%
%TO.N,/A*%
X69250000Y-36082529D03*
%TO.P,J1,7,Pin_7_7*%
%TO.N,/C*%
X66710000Y-38622529D03*
%TO.P,J1,8,Pin_8_8*%
%TO.N,/B*%
X69250000Y-38622529D03*
%TD*%
D14*
%TO.N,GND*%
X67597265Y-44385045D03*
X64000000Y-24302529D03*
X63126847Y-31653811D03*
X72000000Y-33602529D03*
X68000000Y-20802529D03*
X64350000Y-50952529D03*
X72476345Y-24571040D03*
X67000000Y-49802529D03*
X62500000Y-29302529D03*
X68250000Y-40068466D03*
X61850000Y-49252529D03*
X67957815Y-45852529D03*
X71800000Y-50602529D03*
X72000000Y-19302529D03*
X68357546Y-25144819D03*
%TO.N,Net-(U2-g)*%
X68609159Y-28800524D03*
X63000000Y-20802529D03*
%TO.N,Net-(U2-e)*%
X70177000Y-24474059D03*
X68043761Y-49868171D03*
%TO.N,Net-(U1-E)*%
X64256866Y-29894193D03*
%TO.N,Net-(U2-b)*%
X67854242Y-46735846D03*
X73000000Y-20802529D03*
%TO.N,Net-(U2-f)*%
X65000000Y-20902529D03*
X67013550Y-29047917D03*
%TO.N,Net-(U1-D)*%
X63500000Y-30802529D03*
%TO.N,/D*%
X66500000Y-48502529D03*
%TO.N,/A*%
X67100000Y-47002529D03*
%TO.N,Net-(U2-d)*%
X67768663Y-49116955D03*
X69763000Y-25538500D03*
%TD*%
%TO.N,Net-(U2-g)*%
D15*
X66000000Y-20302529D02*
X66937000Y-21239529D01*
X67670690Y-28856528D02*
X68500000Y-28856528D01*
X63500000Y-20302529D02*
X66000000Y-20302529D01*
X63000000Y-20802529D02*
X63500000Y-20302529D01*
X66937000Y-28122838D02*
X67670690Y-28856528D01*
X66937000Y-21239529D02*
X66937000Y-28122838D01*
%TO.N,Net-(U2-e)*%
X70177000Y-24474059D02*
X70179735Y-24476794D01*
X68263750Y-49868171D02*
X68043761Y-49868171D01*
X71603000Y-39103529D02*
X71603000Y-46528921D01*
X71302000Y-29901529D02*
X71302000Y-38802529D01*
X71603000Y-46528921D02*
X68263750Y-49868171D01*
X70179735Y-24476794D02*
X70880265Y-24476794D01*
X71603000Y-25199529D02*
X71603000Y-29600529D01*
X70880265Y-24476794D02*
X71603000Y-25199529D01*
X71302000Y-38802529D02*
X71603000Y-39103529D01*
X71603000Y-29600529D02*
X71302000Y-29901529D01*
%TO.N,Net-(U1-E)*%
X62399000Y-38701529D02*
X62920000Y-39222529D01*
X63532878Y-29894193D02*
X62399000Y-31028071D01*
X62920000Y-39222529D02*
X62920000Y-42422529D01*
X62399000Y-31028071D02*
X62399000Y-38701529D01*
X64256866Y-29894193D02*
X63532878Y-29894193D01*
%TO.N,Net-(U2-b)*%
X70500000Y-29836079D02*
X69063000Y-28399079D01*
X70500000Y-39000289D02*
X70500000Y-29836079D01*
X68397588Y-46735846D02*
X69063000Y-46070434D01*
X69063000Y-46070434D02*
X69063000Y-40437289D01*
X69063000Y-24739529D02*
X73000000Y-20802529D01*
X69063000Y-40437289D02*
X70500000Y-39000289D01*
X69063000Y-28399079D02*
X69063000Y-24739529D01*
X67854242Y-46735846D02*
X68397588Y-46735846D01*
%TO.N,Net-(U2-f)*%
X65713514Y-20902529D02*
X66536000Y-21725015D01*
X66536000Y-21725015D02*
X66536000Y-28570367D01*
X65000000Y-20902529D02*
X65713514Y-20902529D01*
X66536000Y-28570367D02*
X67013550Y-29047917D01*
%TO.N,Net-(U1-D)*%
X64500000Y-31802529D02*
X64500000Y-39802529D01*
X65460000Y-40762529D02*
X65460000Y-42422529D01*
X64500000Y-39802529D02*
X65460000Y-40762529D01*
X63500000Y-30802529D02*
X64500000Y-31802529D01*
%TO.N,/D*%
X65559000Y-39099289D02*
X66523000Y-40063289D01*
X66523000Y-44279529D02*
X66500000Y-44302529D01*
X66710000Y-36082529D02*
X65559000Y-37233529D01*
X65559000Y-37233529D02*
X65559000Y-39099289D01*
X66500000Y-44302529D02*
X66500000Y-48502529D01*
X66523000Y-40063289D02*
X66523000Y-44279529D01*
%TO.N,/A*%
X67100000Y-46354047D02*
X66937000Y-46191047D01*
X68099000Y-37233529D02*
X69250000Y-36082529D01*
X68099000Y-39136874D02*
X68099000Y-37233529D01*
X66937000Y-40298874D02*
X68099000Y-39136874D01*
X67100000Y-47002529D02*
X67100000Y-46354047D01*
X66937000Y-46191047D02*
X66937000Y-40298874D01*
%TO.N,Net-(U2-d)*%
X69477000Y-40590389D02*
X69477000Y-47408618D01*
X69763000Y-25538500D02*
X69464000Y-25837500D01*
X69477000Y-47408618D02*
X67768663Y-49116955D01*
X69464000Y-25837500D02*
X69464000Y-28232979D01*
X70901000Y-39166389D02*
X69477000Y-40590389D01*
X70901000Y-29669979D02*
X70901000Y-39166389D01*
X69464000Y-28232979D02*
X70901000Y-29669979D01*
%TD*%
%TA.AperFunction,Conductor*%
%TO.N,GND*%
G36*
X68250000Y-44059416D02*
G01*
X68272104Y-44055916D01*
X68446053Y-43999396D01*
X68518555Y-43962455D01*
X68578987Y-43952883D01*
X68633503Y-43980660D01*
X68661281Y-44035177D01*
X68662500Y-44050664D01*
X68662500Y-45863533D01*
X68643593Y-45921724D01*
X68633504Y-45933536D01*
X68332941Y-46234098D01*
X68278426Y-46261875D01*
X68217994Y-46252304D01*
X68213460Y-46249842D01*
X68086026Y-46176269D01*
X67933299Y-46135346D01*
X67775185Y-46135346D01*
X67673367Y-46162628D01*
X67622457Y-46176269D01*
X67586212Y-46197195D01*
X67526364Y-46209914D01*
X67470468Y-46185027D01*
X67458923Y-46172691D01*
X67454530Y-46167111D01*
X67420480Y-46108134D01*
X67362344Y-46049998D01*
X67358709Y-46045380D01*
X67350070Y-46021911D01*
X67338719Y-45999632D01*
X67337861Y-45988743D01*
X67337574Y-45987961D01*
X67337751Y-45987335D01*
X67337500Y-45984146D01*
X67337500Y-44050664D01*
X67356407Y-43992473D01*
X67405907Y-43956509D01*
X67467093Y-43956509D01*
X67481445Y-43962455D01*
X67553946Y-43999396D01*
X67727895Y-44055916D01*
X67750000Y-44059416D01*
X67750000Y-42738215D01*
X67754394Y-42742609D01*
X67845606Y-42795270D01*
X67947339Y-42822529D01*
X68052661Y-42822529D01*
X68154394Y-42795270D01*
X68245606Y-42742609D01*
X68250000Y-42738215D01*
X68250000Y-44059416D01*
G37*
%TD.AperFunction*%
%TA.AperFunction,Conductor*%
G36*
X68431094Y-39450315D02*
G01*
X68446287Y-39452722D01*
X68469583Y-39469647D01*
X68470532Y-39470124D01*
X68470925Y-39470508D01*
X68500499Y-39500082D01*
X68647006Y-39606525D01*
X68808361Y-39688740D01*
X68930841Y-39728535D01*
X68984290Y-39745902D01*
X68983587Y-39748065D01*
X69028692Y-39775329D01*
X69052451Y-39831713D01*
X69038530Y-39891294D01*
X69023809Y-39910085D01*
X68742520Y-40191375D01*
X68742516Y-40191380D01*
X68689793Y-40282700D01*
X68689792Y-40282700D01*
X68689793Y-40282701D01*
X68662500Y-40384562D01*
X68662500Y-40794393D01*
X68643593Y-40852584D01*
X68594093Y-40888548D01*
X68532907Y-40888548D01*
X68518556Y-40882603D01*
X68446049Y-40845659D01*
X68272102Y-40789141D01*
X68250000Y-40785640D01*
X68250000Y-42106843D01*
X68245606Y-42102449D01*
X68154394Y-42049788D01*
X68052661Y-42022529D01*
X67947339Y-42022529D01*
X67845606Y-42049788D01*
X67754394Y-42102449D01*
X67750000Y-42106843D01*
X67750000Y-40785640D01*
X67727897Y-40789141D01*
X67553950Y-40845659D01*
X67481444Y-40882603D01*
X67421012Y-40892174D01*
X67366496Y-40864396D01*
X67338719Y-40809879D01*
X67337500Y-40794393D01*
X67337500Y-40505775D01*
X67356407Y-40447584D01*
X67366496Y-40435771D01*
X67845150Y-39957117D01*
X68331340Y-39470926D01*
X68345309Y-39463809D01*
X68356397Y-39452722D01*
X68371884Y-39450269D01*
X68385855Y-39443151D01*
X68401342Y-39445603D01*
X68416829Y-39443151D01*
X68431094Y-39450315D01*
G37*
%TD.AperFunction*%
%TA.AperFunction,Conductor*%
G36*
X73003522Y-18303281D02*
G01*
X73028505Y-18305067D01*
X73206345Y-18317787D01*
X73220308Y-18319794D01*
X73415549Y-18362266D01*
X73429089Y-18366242D01*
X73616288Y-18436063D01*
X73629122Y-18441924D01*
X73804479Y-18537677D01*
X73816358Y-18545311D01*
X73976292Y-18665036D01*
X73986968Y-18674286D01*
X74128242Y-18815560D01*
X74137492Y-18826236D01*
X74257217Y-18986170D01*
X74264853Y-18998052D01*
X74360600Y-19173398D01*
X74366468Y-19186247D01*
X74436284Y-19373433D01*
X74440264Y-19386986D01*
X74482732Y-19582210D01*
X74484742Y-19596191D01*
X74499248Y-19799005D01*
X74499500Y-19806068D01*
X74499500Y-49798989D01*
X74499248Y-49806052D01*
X74484742Y-50008866D01*
X74482732Y-50022847D01*
X74440264Y-50218071D01*
X74436284Y-50231624D01*
X74366468Y-50418810D01*
X74360600Y-50431659D01*
X74264853Y-50607005D01*
X74257217Y-50618887D01*
X74137492Y-50778821D01*
X74128242Y-50789497D01*
X73986968Y-50930771D01*
X73976292Y-50940021D01*
X73816358Y-51059746D01*
X73804476Y-51067382D01*
X73629130Y-51163129D01*
X73616281Y-51168997D01*
X73429095Y-51238813D01*
X73415542Y-51242793D01*
X73220318Y-51285261D01*
X73206337Y-51287271D01*
X73003523Y-51301777D01*
X72996460Y-51302029D01*
X63003540Y-51302029D01*
X62996477Y-51301777D01*
X62793662Y-51287271D01*
X62779681Y-51285261D01*
X62584457Y-51242793D01*
X62570904Y-51238813D01*
X62383718Y-51168997D01*
X62370869Y-51163129D01*
X62195523Y-51067382D01*
X62183641Y-51059746D01*
X62023707Y-50940021D01*
X62013031Y-50930771D01*
X61871757Y-50789497D01*
X61862507Y-50778821D01*
X61742782Y-50618887D01*
X61735146Y-50607005D01*
X61702815Y-50547795D01*
X61639395Y-50431651D01*
X61633534Y-50418817D01*
X61563713Y-50231618D01*
X61559737Y-50218078D01*
X61517265Y-50022837D01*
X61515258Y-50008874D01*
X61500752Y-49806051D01*
X61500500Y-49798989D01*
X61500500Y-41115659D01*
X61857500Y-41115659D01*
X61857500Y-43729389D01*
X61857501Y-43729392D01*
X61860414Y-43754519D01*
X61861827Y-43757718D01*
X61905794Y-43857294D01*
X61985235Y-43936735D01*
X62088009Y-43982114D01*
X62113135Y-43985029D01*
X63726864Y-43985028D01*
X63751991Y-43982114D01*
X63854765Y-43936735D01*
X63934206Y-43857294D01*
X63979585Y-43754520D01*
X63982500Y-43729394D01*
X63982499Y-41115665D01*
X63979585Y-41090538D01*
X63934206Y-40987764D01*
X63854765Y-40908323D01*
X63751991Y-40862944D01*
X63751990Y-40862943D01*
X63751988Y-40862943D01*
X63726869Y-40860029D01*
X63726865Y-40860029D01*
X63419500Y-40860029D01*
X63361309Y-40841122D01*
X63325345Y-40791622D01*
X63320500Y-40761029D01*
X63320500Y-39169803D01*
X63320499Y-39169799D01*
X63305458Y-39113660D01*
X63305458Y-39113659D01*
X63293207Y-39067941D01*
X63293205Y-39067937D01*
X63240483Y-38976620D01*
X63240479Y-38976615D01*
X62828496Y-38564631D01*
X62800719Y-38510115D01*
X62799500Y-38494628D01*
X62799500Y-31234969D01*
X62818407Y-31176778D01*
X62828485Y-31164977D01*
X62856049Y-31137413D01*
X62910563Y-31109638D01*
X62970995Y-31119209D01*
X63011786Y-31157919D01*
X63019480Y-31171245D01*
X63131284Y-31283049D01*
X63268216Y-31362106D01*
X63420943Y-31403029D01*
X63493099Y-31403029D01*
X63551290Y-31421936D01*
X63563103Y-31432025D01*
X64070504Y-31939425D01*
X64098281Y-31993942D01*
X64099500Y-32009429D01*
X64099500Y-39749802D01*
X64099500Y-39855256D01*
X64109156Y-39891294D01*
X64126794Y-39957121D01*
X64179516Y-40048437D01*
X64179517Y-40048438D01*
X64179518Y-40048439D01*
X64179520Y-40048442D01*
X64578662Y-40447584D01*
X64964521Y-40833443D01*
X64992298Y-40887960D01*
X64982727Y-40948392D01*
X64949519Y-40985762D01*
X64782700Y-41097227D01*
X64634699Y-41245228D01*
X64518424Y-41419247D01*
X64438332Y-41612605D01*
X64438330Y-41612611D01*
X64397500Y-41817879D01*
X64397500Y-43027178D01*
X64438330Y-43232446D01*
X64438332Y-43232452D01*
X64518424Y-43425810D01*
X64601566Y-43550241D01*
X64634702Y-43599833D01*
X64782696Y-43747827D01*
X64956718Y-43864104D01*
X65150080Y-43944198D01*
X65355353Y-43985029D01*
X65355354Y-43985029D01*
X65564646Y-43985029D01*
X65564647Y-43985029D01*
X65769920Y-43944198D01*
X65963282Y-43864104D01*
X65968497Y-43860618D01*
X66027382Y-43844009D01*
X66084786Y-43865184D01*
X66118782Y-43916056D01*
X66122500Y-43942933D01*
X66122500Y-44150928D01*
X66119127Y-44176550D01*
X66099500Y-44249802D01*
X66099500Y-48012785D01*
X66080593Y-48070976D01*
X66070504Y-48082788D01*
X66019482Y-48133810D01*
X66019480Y-48133812D01*
X66019480Y-48133813D01*
X65940423Y-48270745D01*
X65899500Y-48423472D01*
X65899500Y-48581586D01*
X65940423Y-48734313D01*
X66019480Y-48871245D01*
X66131284Y-48983049D01*
X66268216Y-49062106D01*
X66420943Y-49103029D01*
X66420945Y-49103029D01*
X66579055Y-49103029D01*
X66579057Y-49103029D01*
X66731784Y-49062106D01*
X66868716Y-48983049D01*
X66980520Y-48871245D01*
X67059577Y-48734313D01*
X67100500Y-48581586D01*
X67100500Y-48423472D01*
X67059577Y-48270745D01*
X66980520Y-48133813D01*
X66980517Y-48133810D01*
X66929496Y-48082788D01*
X66901719Y-48028271D01*
X66900500Y-48012785D01*
X66900500Y-47699775D01*
X66919407Y-47641584D01*
X66968907Y-47605620D01*
X67014211Y-47604441D01*
X67014509Y-47602182D01*
X67020942Y-47603029D01*
X67020943Y-47603029D01*
X67179055Y-47603029D01*
X67179057Y-47603029D01*
X67331784Y-47562106D01*
X67468716Y-47483049D01*
X67580520Y-47371245D01*
X67586067Y-47361637D01*
X67631535Y-47320697D01*
X67692385Y-47314300D01*
X67697410Y-47315506D01*
X67775185Y-47336346D01*
X67775187Y-47336346D01*
X67933297Y-47336346D01*
X67933299Y-47336346D01*
X68086026Y-47295423D01*
X68222958Y-47216366D01*
X68248471Y-47190852D01*
X68273983Y-47165342D01*
X68328500Y-47137565D01*
X68343986Y-47136346D01*
X68450313Y-47136346D01*
X68450315Y-47136346D01*
X68552176Y-47109053D01*
X68552178Y-47109051D01*
X68552180Y-47109051D01*
X68643496Y-47056329D01*
X68643496Y-47056328D01*
X68643501Y-47056326D01*
X68907496Y-46792329D01*
X68962013Y-46764552D01*
X69022445Y-46774123D01*
X69065710Y-46817388D01*
X69076500Y-46862333D01*
X69076500Y-47201717D01*
X69057593Y-47259908D01*
X69047504Y-47271721D01*
X67831766Y-48487459D01*
X67777249Y-48515236D01*
X67761762Y-48516455D01*
X67689606Y-48516455D01*
X67536879Y-48557378D01*
X67399947Y-48636435D01*
X67288143Y-48748239D01*
X67209086Y-48885171D01*
X67168163Y-49037898D01*
X67168163Y-49196012D01*
X67209086Y-49348739D01*
X67288143Y-49485671D01*
X67399947Y-49597475D01*
X67416141Y-49606824D01*
X67457081Y-49652293D01*
X67463477Y-49713143D01*
X67462268Y-49718175D01*
X67443261Y-49789114D01*
X67443261Y-49947228D01*
X67484184Y-50099955D01*
X67563241Y-50236887D01*
X67675045Y-50348691D01*
X67811977Y-50427748D01*
X67964704Y-50468671D01*
X67964706Y-50468671D01*
X68122816Y-50468671D01*
X68122818Y-50468671D01*
X68275545Y-50427748D01*
X68412477Y-50348691D01*
X68524281Y-50236887D01*
X68603338Y-50099955D01*
X68603339Y-50099951D01*
X68603622Y-50099461D01*
X68619351Y-50078961D01*
X71848910Y-46849402D01*
X71848913Y-46849401D01*
X71923480Y-46774834D01*
X71976207Y-46683508D01*
X71978075Y-46676537D01*
X72003501Y-46581648D01*
X72003501Y-46476194D01*
X72003501Y-46470132D01*
X72003500Y-46470114D01*
X72003500Y-43550241D01*
X72022407Y-43492050D01*
X72071907Y-43456086D01*
X72133093Y-43456086D01*
X72182593Y-43492050D01*
X72184807Y-43495228D01*
X72254702Y-43599833D01*
X72402696Y-43747827D01*
X72576718Y-43864104D01*
X72770080Y-43944198D01*
X72975353Y-43985029D01*
X72975354Y-43985029D01*
X73184646Y-43985029D01*
X73184647Y-43985029D01*
X73389920Y-43944198D01*
X73583282Y-43864104D01*
X73757304Y-43747827D01*
X73905298Y-43599833D01*
X74021575Y-43425811D01*
X74101669Y-43232449D01*
X74142500Y-43027176D01*
X74142500Y-41817882D01*
X74101669Y-41612609D01*
X74021575Y-41419247D01*
X73905298Y-41245225D01*
X73757304Y-41097231D01*
X73757300Y-41097228D01*
X73583281Y-40980953D01*
X73389923Y-40900861D01*
X73389917Y-40900859D01*
X73184649Y-40860029D01*
X73184647Y-40860029D01*
X72975353Y-40860029D01*
X72975350Y-40860029D01*
X72770082Y-40900859D01*
X72770076Y-40900861D01*
X72576718Y-40980953D01*
X72402699Y-41097228D01*
X72254699Y-41245228D01*
X72184816Y-41349817D01*
X72136766Y-41387697D01*
X72075628Y-41390099D01*
X72024754Y-41356106D01*
X72003576Y-41298703D01*
X72003500Y-41294816D01*
X72003500Y-39050803D01*
X72003500Y-39050802D01*
X71993050Y-39011801D01*
X71976207Y-38948941D01*
X71976205Y-38948938D01*
X71976205Y-38948936D01*
X71923483Y-38857620D01*
X71923479Y-38857615D01*
X71731496Y-38665631D01*
X71703719Y-38611115D01*
X71702500Y-38595628D01*
X71702500Y-30108429D01*
X71721407Y-30050238D01*
X71731490Y-30038431D01*
X71923480Y-29846442D01*
X71969136Y-29767364D01*
X71976205Y-29755121D01*
X71976205Y-29755119D01*
X71976207Y-29755117D01*
X72003500Y-29653256D01*
X72003500Y-29547802D01*
X72003500Y-28310241D01*
X72022407Y-28252050D01*
X72071907Y-28216086D01*
X72133093Y-28216086D01*
X72182593Y-28252050D01*
X72184807Y-28255228D01*
X72254702Y-28359833D01*
X72402696Y-28507827D01*
X72576718Y-28624104D01*
X72770080Y-28704198D01*
X72975353Y-28745029D01*
X72975354Y-28745029D01*
X73184646Y-28745029D01*
X73184647Y-28745029D01*
X73389920Y-28704198D01*
X73583282Y-28624104D01*
X73757304Y-28507827D01*
X73905298Y-28359833D01*
X74021575Y-28185811D01*
X74101669Y-27992449D01*
X74142500Y-27787176D01*
X74142500Y-26577882D01*
X74101669Y-26372609D01*
X74021575Y-26179247D01*
X73905298Y-26005225D01*
X73757304Y-25857231D01*
X73757300Y-25857228D01*
X73583281Y-25740953D01*
X73389923Y-25660861D01*
X73389917Y-25660859D01*
X73184649Y-25620029D01*
X73184647Y-25620029D01*
X72975353Y-25620029D01*
X72975350Y-25620029D01*
X72770082Y-25660859D01*
X72770076Y-25660861D01*
X72576718Y-25740953D01*
X72402699Y-25857228D01*
X72254699Y-26005228D01*
X72184816Y-26109817D01*
X72136766Y-26147697D01*
X72075628Y-26150099D01*
X72024754Y-26116106D01*
X72003576Y-26058703D01*
X72003500Y-26054816D01*
X72003500Y-25260243D01*
X72003501Y-25260230D01*
X72003501Y-25146804D01*
X72003501Y-25146802D01*
X71976207Y-25044942D01*
X71969679Y-25033636D01*
X71923480Y-24953616D01*
X71848913Y-24879049D01*
X71848910Y-24879047D01*
X71126178Y-24156314D01*
X71126175Y-24156312D01*
X71126173Y-24156310D01*
X71034856Y-24103588D01*
X71034858Y-24103588D01*
X70995335Y-24092998D01*
X70932992Y-24076294D01*
X70932990Y-24076294D01*
X70669479Y-24076294D01*
X70611288Y-24057387D01*
X70601113Y-24048898D01*
X70600272Y-24048095D01*
X70545716Y-23993539D01*
X70539179Y-23989765D01*
X70530596Y-23981570D01*
X70521440Y-23964584D01*
X70508527Y-23950247D01*
X70507268Y-23938291D01*
X70501565Y-23927710D01*
X70504141Y-23908586D01*
X70502122Y-23889397D01*
X70508248Y-23878111D01*
X70509736Y-23867073D01*
X70520177Y-23856137D01*
X70528956Y-23839964D01*
X72936897Y-21432025D01*
X72991414Y-21404248D01*
X73006901Y-21403029D01*
X73079055Y-21403029D01*
X73079057Y-21403029D01*
X73231784Y-21362106D01*
X73368716Y-21283049D01*
X73480520Y-21171245D01*
X73559577Y-21034313D01*
X73600500Y-20881586D01*
X73600500Y-20723472D01*
X73559577Y-20570745D01*
X73480520Y-20433813D01*
X73368716Y-20322009D01*
X73231784Y-20242952D01*
X73079057Y-20202029D01*
X72920943Y-20202029D01*
X72768216Y-20242952D01*
X72631284Y-20322009D01*
X72519480Y-20433813D01*
X72440423Y-20570745D01*
X72399500Y-20723473D01*
X72399500Y-20795628D01*
X72380593Y-20853819D01*
X72370504Y-20865632D01*
X68742516Y-24493620D01*
X68689794Y-24584936D01*
X68662500Y-24686803D01*
X68662500Y-25554393D01*
X68643593Y-25612584D01*
X68594093Y-25648548D01*
X68532907Y-25648548D01*
X68518556Y-25642603D01*
X68446049Y-25605659D01*
X68272102Y-25549141D01*
X68250000Y-25545640D01*
X68250000Y-26866843D01*
X68245606Y-26862449D01*
X68154394Y-26809788D01*
X68052661Y-26782529D01*
X67947339Y-26782529D01*
X67845606Y-26809788D01*
X67754394Y-26862449D01*
X67750000Y-26866843D01*
X67750000Y-25545640D01*
X67727897Y-25549141D01*
X67553950Y-25605659D01*
X67481444Y-25642603D01*
X67421012Y-25652174D01*
X67366496Y-25624396D01*
X67338719Y-25569879D01*
X67337500Y-25554393D01*
X67337500Y-21186803D01*
X67337500Y-21186802D01*
X67310207Y-21084942D01*
X67310207Y-21084941D01*
X67310207Y-21084940D01*
X67257483Y-20993620D01*
X67257481Y-20993618D01*
X67257480Y-20993616D01*
X66245913Y-19982049D01*
X66245910Y-19982047D01*
X66245908Y-19982045D01*
X66154591Y-19929323D01*
X66154593Y-19929323D01*
X66115070Y-19918733D01*
X66052727Y-19902029D01*
X63552727Y-19902029D01*
X63447273Y-19902029D01*
X63357440Y-19926099D01*
X63345408Y-19929323D01*
X63306995Y-19951501D01*
X63306990Y-19951504D01*
X63299750Y-19955685D01*
X63254087Y-19982049D01*
X63179520Y-20056616D01*
X63179518Y-20056618D01*
X63176256Y-20059879D01*
X63176251Y-20059884D01*
X63063105Y-20173032D01*
X63008588Y-20200810D01*
X62993101Y-20202029D01*
X62920943Y-20202029D01*
X62768216Y-20242952D01*
X62631284Y-20322009D01*
X62519480Y-20433813D01*
X62440423Y-20570745D01*
X62399500Y-20723472D01*
X62399500Y-20881586D01*
X62440423Y-21034313D01*
X62519480Y-21171245D01*
X62631284Y-21283049D01*
X62768216Y-21362106D01*
X62920943Y-21403029D01*
X62920945Y-21403029D01*
X63079055Y-21403029D01*
X63079057Y-21403029D01*
X63231784Y-21362106D01*
X63368716Y-21283049D01*
X63480520Y-21171245D01*
X63559577Y-21034313D01*
X63600500Y-20881586D01*
X63600500Y-20809429D01*
X63619407Y-20751238D01*
X63629496Y-20739425D01*
X63636896Y-20732025D01*
X63691413Y-20704248D01*
X63706900Y-20703029D01*
X64302753Y-20703029D01*
X64360944Y-20721936D01*
X64396908Y-20771436D01*
X64398096Y-20816741D01*
X64400347Y-20817038D01*
X64399500Y-20823471D01*
X64399500Y-20823472D01*
X64399500Y-20981586D01*
X64440423Y-21134313D01*
X64519480Y-21271245D01*
X64631284Y-21383049D01*
X64768216Y-21462106D01*
X64920943Y-21503029D01*
X64920945Y-21503029D01*
X65079055Y-21503029D01*
X65079057Y-21503029D01*
X65231784Y-21462106D01*
X65368716Y-21383049D01*
X65394229Y-21357535D01*
X65419741Y-21332025D01*
X65474258Y-21304248D01*
X65489744Y-21303029D01*
X65506613Y-21303029D01*
X65564804Y-21321936D01*
X65576617Y-21332025D01*
X66106504Y-21861912D01*
X66134281Y-21916429D01*
X66135500Y-21931916D01*
X66135500Y-25670810D01*
X66116593Y-25729001D01*
X66067093Y-25764965D01*
X66005907Y-25764965D01*
X65981499Y-25753126D01*
X65963281Y-25740953D01*
X65769923Y-25660861D01*
X65769917Y-25660859D01*
X65564649Y-25620029D01*
X65564647Y-25620029D01*
X65355353Y-25620029D01*
X65355350Y-25620029D01*
X65150082Y-25660859D01*
X65150076Y-25660861D01*
X64956718Y-25740953D01*
X64782699Y-25857228D01*
X64634699Y-26005228D01*
X64518424Y-26179247D01*
X64438332Y-26372605D01*
X64438330Y-26372611D01*
X64397500Y-26577879D01*
X64397500Y-27787178D01*
X64438330Y-27992446D01*
X64438332Y-27992452D01*
X64518424Y-28185810D01*
X64601566Y-28310241D01*
X64634702Y-28359833D01*
X64782696Y-28507827D01*
X64956718Y-28624104D01*
X65150080Y-28704198D01*
X65355353Y-28745029D01*
X65355354Y-28745029D01*
X65564646Y-28745029D01*
X65564647Y-28745029D01*
X65769920Y-28704198D01*
X65963282Y-28624104D01*
X65963287Y-28624100D01*
X65963290Y-28624099D01*
X65994705Y-28603108D01*
X66053593Y-28586498D01*
X66110997Y-28607674D01*
X66144991Y-28658547D01*
X66145335Y-28659799D01*
X66162794Y-28724959D01*
X66215519Y-28816280D01*
X66384053Y-28984812D01*
X66411831Y-29039328D01*
X66413050Y-29054816D01*
X66413050Y-29126974D01*
X66453973Y-29279701D01*
X66533030Y-29416633D01*
X66644834Y-29528437D01*
X66781766Y-29607494D01*
X66886624Y-29635590D01*
X66937937Y-29668913D01*
X66959864Y-29726034D01*
X66960000Y-29731216D01*
X66960000Y-30569517D01*
X66902993Y-30536604D01*
X66775826Y-30502529D01*
X66644174Y-30502529D01*
X66517007Y-30536604D01*
X66460000Y-30569517D01*
X66460000Y-29752530D01*
X66459999Y-29752529D01*
X65828516Y-29752529D01*
X65828514Y-29752530D01*
X65734858Y-29767362D01*
X65734848Y-29767365D01*
X65621956Y-29824887D01*
X65532358Y-29914485D01*
X65474836Y-30027377D01*
X65474835Y-30027381D01*
X65460000Y-30121044D01*
X65460000Y-30752528D01*
X65460001Y-30752529D01*
X66276988Y-30752529D01*
X66244075Y-30809536D01*
X66210000Y-30936703D01*
X66210000Y-31068355D01*
X66244075Y-31195522D01*
X66276988Y-31252529D01*
X65460002Y-31252529D01*
X65460001Y-31252530D01*
X65460001Y-31884014D01*
X65474833Y-31977670D01*
X65474836Y-31977680D01*
X65532358Y-32090572D01*
X65621956Y-32180170D01*
X65734848Y-32237692D01*
X65734852Y-32237693D01*
X65828515Y-32252528D01*
X66332052Y-32252528D01*
X66390243Y-32271435D01*
X66426207Y-32320935D01*
X66426207Y-32382120D01*
X66390243Y-32431621D01*
X66362645Y-32445682D01*
X66268367Y-32476314D01*
X66268364Y-32476316D01*
X66107008Y-32558531D01*
X66047836Y-32601522D01*
X65960499Y-32664976D01*
X65832447Y-32793028D01*
X65779225Y-32866281D01*
X65726002Y-32939537D01*
X65643788Y-33100891D01*
X65587828Y-33273122D01*
X65559500Y-33451979D01*
X65559500Y-33633078D01*
X65587828Y-33811935D01*
X65587829Y-33811938D01*
X65643789Y-33984168D01*
X65726004Y-34145523D01*
X65832447Y-34292030D01*
X65960499Y-34420082D01*
X66107006Y-34526525D01*
X66268361Y-34608740D01*
X66440591Y-34664700D01*
X66512136Y-34676031D01*
X66619451Y-34693029D01*
X66619454Y-34693029D01*
X66800549Y-34693029D01*
X66889977Y-34678864D01*
X66979409Y-34664700D01*
X67151639Y-34608740D01*
X67312994Y-34526525D01*
X67459501Y-34420082D01*
X67587553Y-34292030D01*
X67693996Y-34145523D01*
X67776211Y-33984168D01*
X67832171Y-33811938D01*
X67860500Y-33633075D01*
X67860500Y-33451983D01*
X67860500Y-33451979D01*
X67832171Y-33273122D01*
X67832171Y-33273120D01*
X67776211Y-33100890D01*
X67693996Y-32939535D01*
X67587553Y-32793028D01*
X67459501Y-32664976D01*
X67312994Y-32558533D01*
X67312993Y-32558532D01*
X67312991Y-32558531D01*
X67151637Y-32476317D01*
X67057353Y-32445683D01*
X67007853Y-32409719D01*
X66988945Y-32351529D01*
X67007852Y-32293338D01*
X67057352Y-32257374D01*
X67087945Y-32252528D01*
X67591483Y-32252528D01*
X67591485Y-32252527D01*
X67685141Y-32237695D01*
X67685151Y-32237692D01*
X67798043Y-32180170D01*
X67887641Y-32090572D01*
X67945163Y-31977680D01*
X67945164Y-31977676D01*
X67959999Y-31884013D01*
X67959999Y-31380476D01*
X67978906Y-31322285D01*
X68028406Y-31286321D01*
X68089591Y-31286321D01*
X68139092Y-31322285D01*
X68153154Y-31349883D01*
X68183789Y-31444168D01*
X68213525Y-31502529D01*
X68266004Y-31605523D01*
X68372447Y-31752030D01*
X68500499Y-31880082D01*
X68647006Y-31986525D01*
X68808361Y-32068740D01*
X68980591Y-32124700D01*
X69052136Y-32136031D01*
X69159451Y-32153029D01*
X69159454Y-32153029D01*
X69340549Y-32153029D01*
X69429977Y-32138864D01*
X69519409Y-32124700D01*
X69691639Y-32068740D01*
X69852994Y-31986525D01*
X69942311Y-31921632D01*
X70000500Y-31902726D01*
X70058690Y-31921633D01*
X70094655Y-31971133D01*
X70099500Y-32001726D01*
X70099500Y-32543331D01*
X70080593Y-32601522D01*
X70031093Y-32637486D01*
X69969907Y-32637486D01*
X69942310Y-32623424D01*
X69852997Y-32558534D01*
X69852993Y-32558532D01*
X69691637Y-32476317D01*
X69519406Y-32420357D01*
X69340549Y-32392029D01*
X69340546Y-32392029D01*
X69159454Y-32392029D01*
X69159451Y-32392029D01*
X68980593Y-32420357D01*
X68808362Y-32476317D01*
X68647008Y-32558531D01*
X68587836Y-32601522D01*
X68500499Y-32664976D01*
X68372447Y-32793028D01*
X68319225Y-32866281D01*
X68266002Y-32939537D01*
X68183788Y-33100891D01*
X68127828Y-33273122D01*
X68099500Y-33451979D01*
X68099500Y-33633078D01*
X68127828Y-33811935D01*
X68127829Y-33811938D01*
X68183789Y-33984168D01*
X68266004Y-34145523D01*
X68372447Y-34292030D01*
X68500499Y-34420082D01*
X68647006Y-34526525D01*
X68808361Y-34608740D01*
X68980591Y-34664700D01*
X69052136Y-34676031D01*
X69159451Y-34693029D01*
X69159454Y-34693029D01*
X69340549Y-34693029D01*
X69429977Y-34678864D01*
X69519409Y-34664700D01*
X69691639Y-34608740D01*
X69852994Y-34526525D01*
X69942311Y-34461632D01*
X70000500Y-34442726D01*
X70058690Y-34461633D01*
X70094655Y-34511133D01*
X70099500Y-34541726D01*
X70099500Y-35083331D01*
X70080593Y-35141522D01*
X70031093Y-35177486D01*
X69969907Y-35177486D01*
X69942310Y-35163424D01*
X69852997Y-35098534D01*
X69852993Y-35098532D01*
X69691637Y-35016317D01*
X69519406Y-34960357D01*
X69340549Y-34932029D01*
X69340546Y-34932029D01*
X69159454Y-34932029D01*
X69159451Y-34932029D01*
X68980593Y-34960357D01*
X68808362Y-35016317D01*
X68647008Y-35098531D01*
X68587836Y-35141522D01*
X68500499Y-35204976D01*
X68372447Y-35333028D01*
X68319225Y-35406281D01*
X68266002Y-35479537D01*
X68183788Y-35640891D01*
X68127828Y-35813122D01*
X68099500Y-35991979D01*
X68099500Y-36173078D01*
X68127828Y-36351935D01*
X68179309Y-36510381D01*
X68179308Y-36571566D01*
X68155158Y-36610976D01*
X67778520Y-36987615D01*
X67778516Y-36987620D01*
X67725793Y-37078940D01*
X67725792Y-37078940D01*
X67725793Y-37078941D01*
X67698500Y-37180802D01*
X67698500Y-37744968D01*
X67679593Y-37803159D01*
X67630093Y-37839123D01*
X67568907Y-37839123D01*
X67529498Y-37814973D01*
X67459501Y-37744976D01*
X67312994Y-37638533D01*
X67312993Y-37638532D01*
X67312991Y-37638531D01*
X67151637Y-37556317D01*
X66979406Y-37500357D01*
X66800549Y-37472029D01*
X66800546Y-37472029D01*
X66619454Y-37472029D01*
X66619451Y-37472029D01*
X66440593Y-37500357D01*
X66268362Y-37556317D01*
X66103540Y-37640299D01*
X66102588Y-37638431D01*
X66050569Y-37650829D01*
X65994080Y-37627321D01*
X65962197Y-37575099D01*
X65959500Y-37552147D01*
X65959500Y-37440428D01*
X65978407Y-37382237D01*
X65988484Y-37370436D01*
X66181552Y-37177368D01*
X66236067Y-37149593D01*
X66282146Y-37153219D01*
X66440591Y-37204700D01*
X66512136Y-37216031D01*
X66619451Y-37233029D01*
X66619454Y-37233029D01*
X66800549Y-37233029D01*
X66889977Y-37218864D01*
X66979409Y-37204700D01*
X67151639Y-37148740D01*
X67312994Y-37066525D01*
X67459501Y-36960082D01*
X67587553Y-36832030D01*
X67693996Y-36685523D01*
X67776211Y-36524168D01*
X67832171Y-36351938D01*
X67860500Y-36173075D01*
X67860500Y-35991983D01*
X67860500Y-35991979D01*
X67832171Y-35813122D01*
X67832171Y-35813120D01*
X67776211Y-35640890D01*
X67693996Y-35479535D01*
X67587553Y-35333028D01*
X67459501Y-35204976D01*
X67312994Y-35098533D01*
X67312993Y-35098532D01*
X67312991Y-35098531D01*
X67151637Y-35016317D01*
X66979406Y-34960357D01*
X66800549Y-34932029D01*
X66800546Y-34932029D01*
X66619454Y-34932029D01*
X66619451Y-34932029D01*
X66440593Y-34960357D01*
X66268362Y-35016317D01*
X66107008Y-35098531D01*
X66047836Y-35141522D01*
X65960499Y-35204976D01*
X65832447Y-35333028D01*
X65779225Y-35406281D01*
X65726002Y-35479537D01*
X65643788Y-35640891D01*
X65587828Y-35813122D01*
X65559500Y-35991979D01*
X65559500Y-36173078D01*
X65587828Y-36351935D01*
X65639309Y-36510381D01*
X65639308Y-36571566D01*
X65615158Y-36610976D01*
X65238520Y-36987615D01*
X65238516Y-36987620D01*
X65185793Y-37078940D01*
X65185792Y-37078940D01*
X65185793Y-37078941D01*
X65185793Y-37078942D01*
X65158500Y-37180802D01*
X65158500Y-39046562D01*
X65158500Y-39152016D01*
X65163265Y-39169799D01*
X65185794Y-39253881D01*
X65238516Y-39345197D01*
X65238518Y-39345199D01*
X65238520Y-39345202D01*
X66093505Y-40200187D01*
X66121281Y-40254702D01*
X66122500Y-40270189D01*
X66122500Y-40902123D01*
X66103593Y-40960314D01*
X66054093Y-40996278D01*
X65992907Y-40996278D01*
X65981603Y-40991820D01*
X65974761Y-40988624D01*
X65963282Y-40980954D01*
X65919618Y-40962867D01*
X65917603Y-40961926D01*
X65896767Y-40942471D01*
X65875088Y-40923955D01*
X65874427Y-40921611D01*
X65872882Y-40920169D01*
X65870385Y-40907279D01*
X65860500Y-40872229D01*
X65860500Y-40709803D01*
X65860500Y-40709802D01*
X65833207Y-40607942D01*
X65833207Y-40607941D01*
X65833207Y-40607940D01*
X65780483Y-40516620D01*
X65780482Y-40516619D01*
X65780481Y-40516618D01*
X65780480Y-40516616D01*
X64929496Y-39665632D01*
X64901719Y-39611115D01*
X64900500Y-39595628D01*
X64900500Y-31863243D01*
X64900501Y-31863230D01*
X64900501Y-31749801D01*
X64900500Y-31749799D01*
X64873207Y-31647942D01*
X64852874Y-31612725D01*
X64848716Y-31605523D01*
X64820480Y-31556616D01*
X64745913Y-31482049D01*
X64745910Y-31482047D01*
X64435105Y-31171242D01*
X64129496Y-30865632D01*
X64101719Y-30811115D01*
X64100500Y-30795628D01*
X64100500Y-30723473D01*
X64100500Y-30723472D01*
X64072477Y-30618889D01*
X64075679Y-30557791D01*
X64114184Y-30510241D01*
X64171320Y-30494931D01*
X64171320Y-30494693D01*
X64172210Y-30494693D01*
X64173285Y-30494405D01*
X64176419Y-30494693D01*
X64177809Y-30494693D01*
X64335921Y-30494693D01*
X64335923Y-30494693D01*
X64488650Y-30453770D01*
X64625582Y-30374713D01*
X64737386Y-30262909D01*
X64816443Y-30125977D01*
X64857366Y-29973250D01*
X64857366Y-29815136D01*
X64816443Y-29662409D01*
X64737386Y-29525477D01*
X64625582Y-29413673D01*
X64488650Y-29334616D01*
X64335923Y-29293693D01*
X64177809Y-29293693D01*
X64025082Y-29334616D01*
X63903024Y-29405086D01*
X63888147Y-29413675D01*
X63837125Y-29464697D01*
X63782608Y-29492474D01*
X63767122Y-29493693D01*
X63591684Y-29493693D01*
X63591668Y-29493692D01*
X63585605Y-29493692D01*
X63480151Y-29493692D01*
X63480148Y-29493692D01*
X63378291Y-29520985D01*
X63378287Y-29520987D01*
X63286965Y-29573712D01*
X63212397Y-29648279D01*
X63212398Y-29648280D01*
X62078516Y-30782162D01*
X62025793Y-30873482D01*
X62025792Y-30873482D01*
X62025793Y-30873483D01*
X62015477Y-30911983D01*
X61998500Y-30975344D01*
X61998500Y-38648802D01*
X61998500Y-38754256D01*
X62022570Y-38844088D01*
X62025794Y-38856121D01*
X62078516Y-38947437D01*
X62078518Y-38947439D01*
X62078520Y-38947442D01*
X62490505Y-39359427D01*
X62518281Y-39413942D01*
X62519500Y-39429429D01*
X62519500Y-40761029D01*
X62500593Y-40819220D01*
X62451093Y-40855184D01*
X62420500Y-40860029D01*
X62113139Y-40860029D01*
X62113136Y-40860030D01*
X62088009Y-40862943D01*
X61985235Y-40908323D01*
X61905794Y-40987764D01*
X61860414Y-41090540D01*
X61857500Y-41115659D01*
X61500500Y-41115659D01*
X61500500Y-26577879D01*
X61857500Y-26577879D01*
X61857500Y-27787178D01*
X61898330Y-27992446D01*
X61898332Y-27992452D01*
X61978424Y-28185810D01*
X62061566Y-28310241D01*
X62094702Y-28359833D01*
X62242696Y-28507827D01*
X62416718Y-28624104D01*
X62610080Y-28704198D01*
X62815353Y-28745029D01*
X62815354Y-28745029D01*
X63024646Y-28745029D01*
X63024647Y-28745029D01*
X63229920Y-28704198D01*
X63423282Y-28624104D01*
X63597304Y-28507827D01*
X63745298Y-28359833D01*
X63861575Y-28185811D01*
X63941669Y-27992449D01*
X63982500Y-27787176D01*
X63982500Y-26577882D01*
X63941669Y-26372609D01*
X63861575Y-26179247D01*
X63745298Y-26005225D01*
X63597304Y-25857231D01*
X63597300Y-25857228D01*
X63423281Y-25740953D01*
X63229923Y-25660861D01*
X63229917Y-25660859D01*
X63024649Y-25620029D01*
X63024647Y-25620029D01*
X62815353Y-25620029D01*
X62815350Y-25620029D01*
X62610082Y-25660859D01*
X62610076Y-25660861D01*
X62416718Y-25740953D01*
X62242699Y-25857228D01*
X62094699Y-26005228D01*
X61978424Y-26179247D01*
X61898332Y-26372605D01*
X61898330Y-26372611D01*
X61857500Y-26577879D01*
X61500500Y-26577879D01*
X61500500Y-19806068D01*
X61500752Y-19799006D01*
X61505213Y-19736637D01*
X61515258Y-19596181D01*
X61517265Y-19582222D01*
X61559737Y-19386976D01*
X61563711Y-19373443D01*
X61633536Y-19186234D01*
X61639392Y-19173411D01*
X61735151Y-18998042D01*
X61742775Y-18986179D01*
X61862512Y-18826229D01*
X61871750Y-18815567D01*
X62013038Y-18674279D01*
X62023700Y-18665041D01*
X62183650Y-18545304D01*
X62195513Y-18537680D01*
X62370882Y-18441921D01*
X62383705Y-18436065D01*
X62570914Y-18366240D01*
X62584447Y-18362266D01*
X62779693Y-18319794D01*
X62793652Y-18317787D01*
X62973568Y-18304919D01*
X62996478Y-18303281D01*
X63003540Y-18303029D01*
X63065892Y-18303029D01*
X72934108Y-18303029D01*
X72996460Y-18303029D01*
X73003522Y-18303281D01*
G37*
%TD.AperFunction*%
%TD*%
M02*
