%TF.GenerationSoftware,KiCad,Pcbnew,10.0.0*%
%TF.CreationDate,2026-04-10T13:40:05-05:00*%
%TF.ProjectId,bcd-bus-visualizer,6263642d-6275-4732-9d76-697375616c69,1.0*%
%TF.SameCoordinates,Original*%
%TF.FileFunction,Legend,Top*%
%TF.FilePolarity,Positive*%
%FSLAX46Y46*%
G04 Gerber Fmt 4.6, Leading zero omitted, Abs format (unit mm)*
G04 Created by KiCad (PCBNEW 10.0.0) date 2026-04-10 13:40:05*
%MOMM*%
%LPD*%
G01*
G04 APERTURE LIST*
%ADD10C,0.200000*%
%ADD11C,0.150000*%
%ADD12C,0.120000*%
G04 APERTURE END LIST*
D10*
X66035714Y-18663557D02*
X66892857Y-18663557D01*
X66464285Y-20163557D02*
X66464285Y-18663557D01*
X67678571Y-18663557D02*
X67964285Y-18663557D01*
X67964285Y-18663557D02*
X68107142Y-18734986D01*
X68107142Y-18734986D02*
X68249999Y-18877843D01*
X68249999Y-18877843D02*
X68321428Y-19163557D01*
X68321428Y-19163557D02*
X68321428Y-19663557D01*
X68321428Y-19663557D02*
X68249999Y-19949271D01*
X68249999Y-19949271D02*
X68107142Y-20092129D01*
X68107142Y-20092129D02*
X67964285Y-20163557D01*
X67964285Y-20163557D02*
X67678571Y-20163557D01*
X67678571Y-20163557D02*
X67535714Y-20092129D01*
X67535714Y-20092129D02*
X67392856Y-19949271D01*
X67392856Y-19949271D02*
X67321428Y-19663557D01*
X67321428Y-19663557D02*
X67321428Y-19163557D01*
X67321428Y-19163557D02*
X67392856Y-18877843D01*
X67392856Y-18877843D02*
X67535714Y-18734986D01*
X67535714Y-18734986D02*
X67678571Y-18663557D01*
X68964285Y-20163557D02*
X68964285Y-18663557D01*
X68964285Y-18663557D02*
X69535714Y-18663557D01*
X69535714Y-18663557D02*
X69678571Y-18734986D01*
X69678571Y-18734986D02*
X69750000Y-18806414D01*
X69750000Y-18806414D02*
X69821428Y-18949271D01*
X69821428Y-18949271D02*
X69821428Y-19163557D01*
X69821428Y-19163557D02*
X69750000Y-19306414D01*
X69750000Y-19306414D02*
X69678571Y-19377843D01*
X69678571Y-19377843D02*
X69535714Y-19449271D01*
X69535714Y-19449271D02*
X68964285Y-19449271D01*
D11*
X73454819Y-50469195D02*
X72978628Y-50802528D01*
X73454819Y-51040623D02*
X72454819Y-51040623D01*
X72454819Y-51040623D02*
X72454819Y-50659671D01*
X72454819Y-50659671D02*
X72502438Y-50564433D01*
X72502438Y-50564433D02*
X72550057Y-50516814D01*
X72550057Y-50516814D02*
X72645295Y-50469195D01*
X72645295Y-50469195D02*
X72788152Y-50469195D01*
X72788152Y-50469195D02*
X72883390Y-50516814D01*
X72883390Y-50516814D02*
X72931009Y-50564433D01*
X72931009Y-50564433D02*
X72978628Y-50659671D01*
X72978628Y-50659671D02*
X72978628Y-51040623D01*
X72454819Y-50135861D02*
X72454819Y-49469195D01*
X72454819Y-49469195D02*
X73454819Y-49897766D01*
X62333333Y-45761266D02*
X62285714Y-45808886D01*
X62285714Y-45808886D02*
X62142857Y-45856505D01*
X62142857Y-45856505D02*
X62047619Y-45856505D01*
X62047619Y-45856505D02*
X61904762Y-45808886D01*
X61904762Y-45808886D02*
X61809524Y-45713647D01*
X61809524Y-45713647D02*
X61761905Y-45618409D01*
X61761905Y-45618409D02*
X61714286Y-45427933D01*
X61714286Y-45427933D02*
X61714286Y-45285076D01*
X61714286Y-45285076D02*
X61761905Y-45094600D01*
X61761905Y-45094600D02*
X61809524Y-44999362D01*
X61809524Y-44999362D02*
X61904762Y-44904124D01*
X61904762Y-44904124D02*
X62047619Y-44856505D01*
X62047619Y-44856505D02*
X62142857Y-44856505D01*
X62142857Y-44856505D02*
X62285714Y-44904124D01*
X62285714Y-44904124D02*
X62333333Y-44951743D01*
X62714286Y-44951743D02*
X62761905Y-44904124D01*
X62761905Y-44904124D02*
X62857143Y-44856505D01*
X62857143Y-44856505D02*
X63095238Y-44856505D01*
X63095238Y-44856505D02*
X63190476Y-44904124D01*
X63190476Y-44904124D02*
X63238095Y-44951743D01*
X63238095Y-44951743D02*
X63285714Y-45046981D01*
X63285714Y-45046981D02*
X63285714Y-45142219D01*
X63285714Y-45142219D02*
X63238095Y-45285076D01*
X63238095Y-45285076D02*
X62666667Y-45856505D01*
X62666667Y-45856505D02*
X63285714Y-45856505D01*
X63454819Y-19969195D02*
X62978628Y-20302528D01*
X63454819Y-20540623D02*
X62454819Y-20540623D01*
X62454819Y-20540623D02*
X62454819Y-20159671D01*
X62454819Y-20159671D02*
X62502438Y-20064433D01*
X62502438Y-20064433D02*
X62550057Y-20016814D01*
X62550057Y-20016814D02*
X62645295Y-19969195D01*
X62645295Y-19969195D02*
X62788152Y-19969195D01*
X62788152Y-19969195D02*
X62883390Y-20016814D01*
X62883390Y-20016814D02*
X62931009Y-20064433D01*
X62931009Y-20064433D02*
X62978628Y-20159671D01*
X62978628Y-20159671D02*
X62978628Y-20540623D01*
X63454819Y-19016814D02*
X63454819Y-19588242D01*
X63454819Y-19302528D02*
X62454819Y-19302528D01*
X62454819Y-19302528D02*
X62597676Y-19397766D01*
X62597676Y-19397766D02*
X62692914Y-19493004D01*
X62692914Y-19493004D02*
X62740533Y-19588242D01*
X71454819Y-19969195D02*
X70978628Y-20302528D01*
X71454819Y-20540623D02*
X70454819Y-20540623D01*
X70454819Y-20540623D02*
X70454819Y-20159671D01*
X70454819Y-20159671D02*
X70502438Y-20064433D01*
X70502438Y-20064433D02*
X70550057Y-20016814D01*
X70550057Y-20016814D02*
X70645295Y-19969195D01*
X70645295Y-19969195D02*
X70788152Y-19969195D01*
X70788152Y-19969195D02*
X70883390Y-20016814D01*
X70883390Y-20016814D02*
X70931009Y-20064433D01*
X70931009Y-20064433D02*
X70978628Y-20159671D01*
X70978628Y-20159671D02*
X70978628Y-20540623D01*
X70454819Y-19064433D02*
X70454819Y-19540623D01*
X70454819Y-19540623D02*
X70931009Y-19588242D01*
X70931009Y-19588242D02*
X70883390Y-19540623D01*
X70883390Y-19540623D02*
X70835771Y-19445385D01*
X70835771Y-19445385D02*
X70835771Y-19207290D01*
X70835771Y-19207290D02*
X70883390Y-19112052D01*
X70883390Y-19112052D02*
X70931009Y-19064433D01*
X70931009Y-19064433D02*
X71026247Y-19016814D01*
X71026247Y-19016814D02*
X71264342Y-19016814D01*
X71264342Y-19016814D02*
X71359580Y-19064433D01*
X71359580Y-19064433D02*
X71407200Y-19112052D01*
X71407200Y-19112052D02*
X71454819Y-19207290D01*
X71454819Y-19207290D02*
X71454819Y-19445385D01*
X71454819Y-19445385D02*
X71407200Y-19540623D01*
X71407200Y-19540623D02*
X71359580Y-19588242D01*
X73759580Y-31969195D02*
X73807200Y-32016814D01*
X73807200Y-32016814D02*
X73854819Y-32159671D01*
X73854819Y-32159671D02*
X73854819Y-32254909D01*
X73854819Y-32254909D02*
X73807200Y-32397766D01*
X73807200Y-32397766D02*
X73711961Y-32493004D01*
X73711961Y-32493004D02*
X73616723Y-32540623D01*
X73616723Y-32540623D02*
X73426247Y-32588242D01*
X73426247Y-32588242D02*
X73283390Y-32588242D01*
X73283390Y-32588242D02*
X73092914Y-32540623D01*
X73092914Y-32540623D02*
X72997676Y-32493004D01*
X72997676Y-32493004D02*
X72902438Y-32397766D01*
X72902438Y-32397766D02*
X72854819Y-32254909D01*
X72854819Y-32254909D02*
X72854819Y-32159671D01*
X72854819Y-32159671D02*
X72902438Y-32016814D01*
X72902438Y-32016814D02*
X72950057Y-31969195D01*
X73854819Y-31016814D02*
X73854819Y-31588242D01*
X73854819Y-31302528D02*
X72854819Y-31302528D01*
X72854819Y-31302528D02*
X72997676Y-31397766D01*
X72997676Y-31397766D02*
X73092914Y-31493004D01*
X73092914Y-31493004D02*
X73140533Y-31588242D01*
X73454819Y-19969195D02*
X72978628Y-20302528D01*
X73454819Y-20540623D02*
X72454819Y-20540623D01*
X72454819Y-20540623D02*
X72454819Y-20159671D01*
X72454819Y-20159671D02*
X72502438Y-20064433D01*
X72502438Y-20064433D02*
X72550057Y-20016814D01*
X72550057Y-20016814D02*
X72645295Y-19969195D01*
X72645295Y-19969195D02*
X72788152Y-19969195D01*
X72788152Y-19969195D02*
X72883390Y-20016814D01*
X72883390Y-20016814D02*
X72931009Y-20064433D01*
X72931009Y-20064433D02*
X72978628Y-20159671D01*
X72978628Y-20159671D02*
X72978628Y-20540623D01*
X72454819Y-19112052D02*
X72454819Y-19302528D01*
X72454819Y-19302528D02*
X72502438Y-19397766D01*
X72502438Y-19397766D02*
X72550057Y-19445385D01*
X72550057Y-19445385D02*
X72692914Y-19540623D01*
X72692914Y-19540623D02*
X72883390Y-19588242D01*
X72883390Y-19588242D02*
X73264342Y-19588242D01*
X73264342Y-19588242D02*
X73359580Y-19540623D01*
X73359580Y-19540623D02*
X73407200Y-19493004D01*
X73407200Y-19493004D02*
X73454819Y-19397766D01*
X73454819Y-19397766D02*
X73454819Y-19207290D01*
X73454819Y-19207290D02*
X73407200Y-19112052D01*
X73407200Y-19112052D02*
X73359580Y-19064433D01*
X73359580Y-19064433D02*
X73264342Y-19016814D01*
X73264342Y-19016814D02*
X73026247Y-19016814D01*
X73026247Y-19016814D02*
X72931009Y-19064433D01*
X72931009Y-19064433D02*
X72883390Y-19112052D01*
X72883390Y-19112052D02*
X72835771Y-19207290D01*
X72835771Y-19207290D02*
X72835771Y-19397766D01*
X72835771Y-19397766D02*
X72883390Y-19493004D01*
X72883390Y-19493004D02*
X72931009Y-19540623D01*
X72931009Y-19540623D02*
X73026247Y-19588242D01*
X65454819Y-19969195D02*
X64978628Y-20302528D01*
X65454819Y-20540623D02*
X64454819Y-20540623D01*
X64454819Y-20540623D02*
X64454819Y-20159671D01*
X64454819Y-20159671D02*
X64502438Y-20064433D01*
X64502438Y-20064433D02*
X64550057Y-20016814D01*
X64550057Y-20016814D02*
X64645295Y-19969195D01*
X64645295Y-19969195D02*
X64788152Y-19969195D01*
X64788152Y-19969195D02*
X64883390Y-20016814D01*
X64883390Y-20016814D02*
X64931009Y-20064433D01*
X64931009Y-20064433D02*
X64978628Y-20159671D01*
X64978628Y-20159671D02*
X64978628Y-20540623D01*
X64550057Y-19588242D02*
X64502438Y-19540623D01*
X64502438Y-19540623D02*
X64454819Y-19445385D01*
X64454819Y-19445385D02*
X64454819Y-19207290D01*
X64454819Y-19207290D02*
X64502438Y-19112052D01*
X64502438Y-19112052D02*
X64550057Y-19064433D01*
X64550057Y-19064433D02*
X64645295Y-19016814D01*
X64645295Y-19016814D02*
X64740533Y-19016814D01*
X64740533Y-19016814D02*
X64883390Y-19064433D01*
X64883390Y-19064433D02*
X65454819Y-19635861D01*
X65454819Y-19635861D02*
X65454819Y-19016814D01*
X72276817Y-44966328D02*
X72276817Y-45775851D01*
X72276817Y-45775851D02*
X72324436Y-45871089D01*
X72324436Y-45871089D02*
X72372055Y-45918709D01*
X72372055Y-45918709D02*
X72467293Y-45966328D01*
X72467293Y-45966328D02*
X72657769Y-45966328D01*
X72657769Y-45966328D02*
X72753007Y-45918709D01*
X72753007Y-45918709D02*
X72800626Y-45871089D01*
X72800626Y-45871089D02*
X72848245Y-45775851D01*
X72848245Y-45775851D02*
X72848245Y-44966328D01*
X73848245Y-45966328D02*
X73276817Y-45966328D01*
X73562531Y-45966328D02*
X73562531Y-44966328D01*
X73562531Y-44966328D02*
X73467293Y-45109185D01*
X73467293Y-45109185D02*
X73372055Y-45204423D01*
X73372055Y-45204423D02*
X73276817Y-45252042D01*
X62238095Y-49757348D02*
X62238095Y-50566871D01*
X62238095Y-50566871D02*
X62285714Y-50662109D01*
X62285714Y-50662109D02*
X62333333Y-50709729D01*
X62333333Y-50709729D02*
X62428571Y-50757348D01*
X62428571Y-50757348D02*
X62619047Y-50757348D01*
X62619047Y-50757348D02*
X62714285Y-50709729D01*
X62714285Y-50709729D02*
X62761904Y-50662109D01*
X62761904Y-50662109D02*
X62809523Y-50566871D01*
X62809523Y-50566871D02*
X62809523Y-49757348D01*
X63238095Y-49852586D02*
X63285714Y-49804967D01*
X63285714Y-49804967D02*
X63380952Y-49757348D01*
X63380952Y-49757348D02*
X63619047Y-49757348D01*
X63619047Y-49757348D02*
X63714285Y-49804967D01*
X63714285Y-49804967D02*
X63761904Y-49852586D01*
X63761904Y-49852586D02*
X63809523Y-49947824D01*
X63809523Y-49947824D02*
X63809523Y-50043062D01*
X63809523Y-50043062D02*
X63761904Y-50185919D01*
X63761904Y-50185919D02*
X63190476Y-50757348D01*
X63190476Y-50757348D02*
X63809523Y-50757348D01*
%TO.C,R7*%
D12*
X72477500Y-47914787D02*
X72477500Y-47440271D01*
X73522500Y-47914787D02*
X73522500Y-47440271D01*
%TO.C,C2*%
X62490000Y-47718109D02*
X62490000Y-47436949D01*
X63510000Y-47718109D02*
X63510000Y-47436949D01*
%TO.C,R1*%
X62477500Y-22390271D02*
X62477500Y-22864787D01*
X63522500Y-22390271D02*
X63522500Y-22864787D01*
%TO.C,R5*%
X70477500Y-22390271D02*
X70477500Y-22864787D01*
X71522500Y-22390271D02*
X71522500Y-22864787D01*
%TO.C,C1*%
X71490000Y-31918109D02*
X71490000Y-31636949D01*
X72510000Y-31918109D02*
X72510000Y-31636949D01*
%TO.C,R4*%
X68477500Y-22390271D02*
X68477500Y-22864787D01*
X69522500Y-22390271D02*
X69522500Y-22864787D01*
%TO.C,R6*%
X72477500Y-22390271D02*
X72477500Y-22864787D01*
X73522500Y-22390271D02*
X73522500Y-22864787D01*
%TO.C,R2*%
X64477500Y-22390271D02*
X64477500Y-22864787D01*
X65522500Y-22390271D02*
X65522500Y-22864787D01*
%TO.C,U1*%
X61590000Y-40517529D02*
X61590000Y-29087529D01*
X62700000Y-44437529D02*
X74300000Y-44437529D01*
X63000000Y-39802529D02*
X70000000Y-39802529D01*
X64000000Y-34802529D02*
X63000000Y-39802529D01*
X65000000Y-29802529D02*
X64000000Y-34802529D01*
X65000000Y-29802529D02*
X72000000Y-29802529D01*
X70000000Y-39802529D02*
X71000000Y-34802529D01*
X71000000Y-34802529D02*
X64000000Y-34802529D01*
X71000000Y-34802529D02*
X71353008Y-33037484D01*
X72000000Y-29802529D02*
X71901941Y-30292819D01*
X74300000Y-25167529D02*
X61700000Y-25167529D01*
X74410000Y-40517529D02*
X74410000Y-29087529D01*
X72447214Y-39802529D02*
G75*
G02*
X71552786Y-39802529I-447214J0D01*
G01*
X71552786Y-39802529D02*
G75*
G02*
X72447214Y-39802529I447214J0D01*
G01*
%TO.C,U2*%
X67862500Y-44792529D02*
X65662500Y-44792529D01*
X67862500Y-44792529D02*
X70062500Y-44792529D01*
X67862500Y-50262529D02*
X65662500Y-50262529D01*
X67862500Y-50262529D02*
X70062500Y-50262529D01*
X64002500Y-45252529D02*
X63672500Y-45492529D01*
X63672500Y-45012529D01*
X64002500Y-45252529D01*
G36*
X64002500Y-45252529D02*
G01*
X63672500Y-45492529D01*
X63672500Y-45012529D01*
X64002500Y-45252529D01*
G37*
%TO.C,R3*%
X66477500Y-22390271D02*
X66477500Y-22864787D01*
X67522500Y-22390271D02*
X67522500Y-22864787D01*
%TD*%
M02*
