M48
; DRILL file KiCad 10.0.0 date 2026-04-10T13:40:05
; FORMAT={-:-/ absolute / metric / decimal}
; #@! TF.CreationDate,2026-04-10T13:40:05-05:00
; #@! TF.GenerationSoftware,Kicad,Pcbnew,10.0.0
; #@! TF.FileFunction,Plated,1,2,PTH
FMAT,2
METRIC
; #@! TA.AperFunction,Plated,PTH,ViaDrill
T1C0.300
; #@! TA.AperFunction,Plated,PTH,ComponentDrill
T2C0.800
; #@! TA.AperFunction,Plated,PTH,ComponentDrill
T3C1.000
%
G90
G05
T1
X61.85Y-49.253
X62.5Y-29.303
X63.0Y-20.803
X63.127Y-31.654
X63.5Y-30.803
X64.0Y-24.303
X64.257Y-29.894
X64.35Y-50.953
X65.0Y-20.903
X66.5Y-48.503
X67.0Y-49.803
X67.014Y-29.048
X67.1Y-47.003
X67.597Y-44.385
X67.769Y-49.117
X67.854Y-46.736
X67.958Y-45.853
X68.0Y-20.803
X68.044Y-49.868
X68.25Y-40.068
X68.358Y-25.145
X68.609Y-28.801
X69.763Y-25.538
X70.177Y-24.474
X71.8Y-50.603
X72.0Y-19.303
X72.0Y-33.603
X72.476Y-24.571
X73.0Y-20.803
T2
X62.92Y-27.183
X62.92Y-42.423
X65.46Y-27.183
X65.46Y-42.423
X68.0Y-27.183
X68.0Y-42.423
X70.54Y-27.183
X70.54Y-42.423
X73.08Y-27.183
X73.08Y-42.423
T3
X66.71Y-31.003
X66.71Y-33.543
X66.71Y-36.083
X66.71Y-38.623
X69.25Y-31.003
X69.25Y-33.543
X69.25Y-36.083
X69.25Y-38.623
M30
