%TF.GenerationSoftware,KiCad,Pcbnew,10.0.0*%
%TF.CreationDate,2026-04-10T13:40:05-05:00*%
%TF.ProjectId,bcd-bus-visualizer,6263642d-6275-4732-9d76-697375616c69,1.0*%
%TF.SameCoordinates,Original*%
%TF.FileFunction,Copper,L1,Top*%
%TF.FilePolarity,Positive*%
%FSLAX46Y46*%
G04 Gerber Fmt 4.6, Leading zero omitted, Abs format (unit mm)*
G04 Created by KiCad (PCBNEW 10.0.0) date 2026-04-10 13:40:05*
%MOMM*%
%LPD*%
G01*
G04 APERTURE LIST*
G04 Aperture macros list*
%AMRoundRect*
0 Rectangle with rounded corners*
0 $1 Rounding radius*
0 $2 $3 $4 $5 $6 $7 $8 $9 X,Y pos of 4 corners*
0 Add a 4 corners polygon primitive as box body*
4,1,4,$2,$3,$4,$5,$6,$7,$8,$9,$2,$3,0*
0 Add four circle primitives for the rounded corners*
1,1,$1+$1,$2,$3*
1,1,$1+$1,$4,$5*
1,1,$1+$1,$6,$7*
1,1,$1+$1,$8,$9*
0 Add four rect primitives between the rounded corners*
20,1,$1+$1,$2,$3,$4,$5,0*
20,1,$1+$1,$4,$5,$6,$7,0*
20,1,$1+$1,$6,$7,$8,$9,0*
20,1,$1+$1,$8,$9,$2,$3,0*%
G04 Aperture macros list end*
%TA.AperFunction,SMDPad,CuDef*%
%ADD10RoundRect,0.200000X0.275000X-0.200000X0.275000X0.200000X-0.275000X0.200000X-0.275000X-0.200000X0*%
%TD*%
%TA.AperFunction,SMDPad,CuDef*%
%ADD11RoundRect,0.225000X0.250000X-0.225000X0.250000X0.225000X-0.250000X0.225000X-0.250000X-0.225000X0*%
%TD*%
%TA.AperFunction,SMDPad,CuDef*%
%ADD12RoundRect,0.200000X-0.275000X0.200000X-0.275000X-0.200000X0.275000X-0.200000X0.275000X0.200000X0*%
%TD*%
%TA.AperFunction,ComponentPad*%
%ADD13R,1.524000X2.524000*%
%TD*%
%TA.AperFunction,ComponentPad*%
%ADD14O,1.524000X2.524000*%
%TD*%
%TA.AperFunction,SMDPad,CuDef*%
%ADD15RoundRect,0.100000X-0.637500X-0.100000X0.637500X-0.100000X0.637500X0.100000X-0.637500X0.100000X0*%
%TD*%
%TA.AperFunction,ComponentPad*%
%ADD16R,1.700000X1.700000*%
%TD*%
%TA.AperFunction,ComponentPad*%
%ADD17C,1.700000*%
%TD*%
%TA.AperFunction,ViaPad*%
%ADD18C,0.600000*%
%TD*%
%TA.AperFunction,Conductor*%
%ADD19C,0.200000*%
%TD*%
G04 APERTURE END LIST*
D10*
%TO.P,R7,1*%
%TO.N,Net-(U2-c)*%
X73000000Y-48502529D03*
%TO.P,R7,2*%
%TO.N,Net-(U1-C)*%
X73000000Y-46852529D03*
%TD*%
D11*
%TO.P,C2,1*%
%TO.N,GND*%
X63000000Y-48352529D03*
%TO.P,C2,2*%
%TO.N,3V3*%
X63000000Y-46802529D03*
%TD*%
D12*
%TO.P,R1,1*%
%TO.N,Net-(U2-g)*%
X63000000Y-21802529D03*
%TO.P,R1,2*%
%TO.N,Net-(U1-G)*%
X63000000Y-23452529D03*
%TD*%
%TO.P,R5,1*%
%TO.N,Net-(U2-a)*%
X71000000Y-21802529D03*
%TO.P,R5,2*%
%TO.N,Net-(U1-A)*%
X71000000Y-23452529D03*
%TD*%
D11*
%TO.P,C1,1*%
%TO.N,GND*%
X72000000Y-32552529D03*
%TO.P,C1,2*%
%TO.N,3V3*%
X72000000Y-31002529D03*
%TD*%
D12*
%TO.P,R4,1*%
%TO.N,Net-(U2-e)*%
X69000000Y-21802529D03*
%TO.P,R4,2*%
%TO.N,Net-(U1-E)*%
X69000000Y-23452529D03*
%TD*%
%TO.P,R6,1*%
%TO.N,Net-(U2-b)*%
X73000000Y-21802529D03*
%TO.P,R6,2*%
%TO.N,Net-(U1-B)*%
X73000000Y-23452529D03*
%TD*%
%TO.P,R2,1*%
%TO.N,Net-(U2-f)*%
X65000000Y-21802529D03*
%TO.P,R2,2*%
%TO.N,Net-(U1-F)*%
X65000000Y-23452529D03*
%TD*%
D13*
%TO.P,U1,1,E_1*%
%TO.N,Net-(U1-E)*%
X62920000Y-42422529D03*
D14*
%TO.P,U1,2,D_2*%
%TO.N,Net-(U1-D)*%
X65460000Y-42422529D03*
%TO.P,U1,3,CC_3*%
%TO.N,GND*%
X68000000Y-42422529D03*
%TO.P,U1,4,C_4*%
%TO.N,Net-(U1-C)*%
X70540000Y-42422529D03*
%TO.P,U1,5,DP_5*%
%TO.N,unconnected-(U1-DP-Pad5)*%
X73080000Y-42422529D03*
%TO.P,U1,6,B_6*%
%TO.N,Net-(U1-B)*%
X73080000Y-27182529D03*
%TO.P,U1,7,A_7*%
%TO.N,Net-(U1-A)*%
X70540000Y-27182529D03*
%TO.P,U1,8,CC_8*%
%TO.N,GND*%
X68000000Y-27182529D03*
%TO.P,U1,9,F_9*%
%TO.N,Net-(U1-F)*%
X65460000Y-27182529D03*
%TO.P,U1,10,G_10*%
%TO.N,Net-(U1-G)*%
X62920000Y-27182529D03*
%TD*%
D15*
%TO.P,U2,1,B_1*%
%TO.N,/B*%
X65000000Y-45252529D03*
%TO.P,U2,2,C_2*%
%TO.N,/C*%
X65000000Y-45902529D03*
%TO.P,U2,3,LT_3*%
%TO.N,3V3*%
X65000000Y-46552529D03*
%TO.P,U2,4,BI_4*%
X65000000Y-47202529D03*
%TO.P,U2,5,RBI_5*%
%TO.N,GND*%
X65000000Y-47852529D03*
%TO.P,U2,6,D_6*%
%TO.N,/D*%
X65000000Y-48502529D03*
%TO.P,U2,7,A_7*%
%TO.N,/A*%
X65000000Y-49152529D03*
%TO.P,U2,8,GND_8*%
%TO.N,GND*%
X65000000Y-49802529D03*
%TO.P,U2,9,e_9*%
%TO.N,Net-(U2-e)*%
X70725000Y-49802529D03*
%TO.P,U2,10,d_10*%
%TO.N,Net-(U2-d)*%
X70725000Y-49152529D03*
%TO.P,U2,11,c_11*%
%TO.N,Net-(U2-c)*%
X70725000Y-48502529D03*
%TO.P,U2,12,b_12*%
%TO.N,Net-(U2-b)*%
X70725000Y-47852529D03*
%TO.P,U2,13,a_13*%
%TO.N,Net-(U2-a)*%
X70725000Y-47202529D03*
%TO.P,U2,14,g_14*%
%TO.N,Net-(U2-g)*%
X70725000Y-46552529D03*
%TO.P,U2,15,f_15*%
%TO.N,Net-(U2-f)*%
X70725000Y-45902529D03*
%TO.P,U2,16,VCC_16*%
%TO.N,3V3*%
X70725000Y-45252529D03*
%TD*%
D12*
%TO.P,R3,1*%
%TO.N,Net-(U2-d)*%
X67000000Y-21802529D03*
%TO.P,R3,2*%
%TO.N,Net-(U1-D)*%
X67000000Y-23452529D03*
%TD*%
D16*
%TO.P,J1,1,Pin_1_1*%
%TO.N,GND*%
X66710000Y-31002529D03*
D17*
%TO.P,J1,2,Pin_2_2*%
%TO.N,3V3*%
X69250000Y-31002529D03*
%TO.P,J1,3,Pin_3_3*%
%TO.N,unconnected-(J1-Pin_3-Pad3)*%
X66710000Y-33542529D03*
%TO.P,J1,4,Pin_4_4*%
%TO.N,unconnected-(J1-Pin_4-Pad4)*%
X69250000Y-33542529D03*
%TO.P,J1,5,Pin_5_5*%
%TO.N,/D*%
X66710000Y-36082529D03*
%TO.P,J1,6,Pin_6_6*%
%TO.N,/A*%
X69250000Y-36082529D03*
%TO.P,J1,7,Pin_7_7*%
%TO.N,/C*%
X66710000Y-38622529D03*
%TO.P,J1,8,Pin_8_8*%
%TO.N,/B*%
X69250000Y-38622529D03*
%TD*%
D18*
%TO.N,GND*%
X67597265Y-44385045D03*
X64000000Y-24302529D03*
X63126847Y-31653811D03*
X72000000Y-33602529D03*
X68000000Y-20802529D03*
X64350000Y-50952529D03*
X72476345Y-24571040D03*
X67000000Y-49802529D03*
X62500000Y-29302529D03*
X68250000Y-40068466D03*
X61850000Y-49252529D03*
X67957815Y-45852529D03*
X71800000Y-50602529D03*
X72000000Y-19302529D03*
X68357546Y-25144819D03*
%TO.N,Net-(U2-g)*%
X68609159Y-28800524D03*
X63000000Y-20802529D03*
%TO.N,Net-(U2-e)*%
X70177000Y-24474059D03*
X68043761Y-49868171D03*
%TO.N,Net-(U1-E)*%
X64256866Y-29894193D03*
%TO.N,Net-(U2-b)*%
X67854242Y-46735846D03*
X73000000Y-20802529D03*
%TO.N,Net-(U2-f)*%
X65000000Y-20902529D03*
X67013550Y-29047917D03*
%TO.N,Net-(U1-D)*%
X63500000Y-30802529D03*
%TO.N,/D*%
X66500000Y-48502529D03*
%TO.N,/A*%
X67100000Y-47002529D03*
%TO.N,Net-(U2-d)*%
X67768663Y-49116955D03*
X69763000Y-25538500D03*
%TD*%
%TO.N,Net-(U2-c)*%
D19*
X70725000Y-48502529D02*
X73000000Y-48502529D01*
%TO.N,Net-(U1-C)*%
X73000000Y-45085959D02*
X70540000Y-42625959D01*
X70540000Y-42625959D02*
X70540000Y-42422529D01*
X73000000Y-46852529D02*
X73000000Y-45085959D01*
%TO.N,GND*%
X71839000Y-32391529D02*
X72000000Y-32552529D01*
X65000000Y-49802529D02*
X67000000Y-49802529D01*
X65000000Y-47852529D02*
X63500000Y-47852529D01*
X63500000Y-47852529D02*
X63000000Y-48352529D01*
X68010000Y-32302529D02*
X72000000Y-32302529D01*
X66710000Y-31002529D02*
X68010000Y-32302529D01*
X63500000Y-49802529D02*
X63000000Y-49302529D01*
X63000000Y-49302529D02*
X63000000Y-48352529D01*
X65000000Y-49802529D02*
X63500000Y-49802529D01*
%TO.N,3V3*%
X65000000Y-46552529D02*
X63250000Y-46552529D01*
X66317100Y-46552529D02*
X65000000Y-46552529D01*
X71549000Y-29851529D02*
X72000000Y-30302529D01*
X63000000Y-46802529D02*
X63000000Y-46002529D01*
X63983000Y-45019529D02*
X63983000Y-31427529D01*
X65000000Y-47202529D02*
X63400000Y-47202529D01*
X72000000Y-30302529D02*
X72000000Y-31002529D01*
X70725000Y-45252529D02*
X67617100Y-45252529D01*
X63400000Y-47202529D02*
X63000000Y-46802529D01*
X72000000Y-31002529D02*
X69250000Y-31002529D01*
X63983000Y-31427529D02*
X65559000Y-29851529D01*
X63000000Y-46002529D02*
X63983000Y-45019529D01*
X65559000Y-29851529D02*
X71549000Y-29851529D01*
X63250000Y-46552529D02*
X63000000Y-46802529D01*
X67617100Y-45252529D02*
X66317100Y-46552529D01*
%TO.N,Net-(U2-g)*%
X71750000Y-46552529D02*
X70725000Y-46552529D01*
X70156691Y-40802529D02*
X69477000Y-41482220D01*
X73599000Y-30271937D02*
X73599000Y-39136429D01*
X69477000Y-43745979D02*
X70081550Y-44350529D01*
X63000000Y-20802529D02*
X63000000Y-21802529D01*
X72164500Y-44817559D02*
X72164500Y-46138029D01*
X68500000Y-28856528D02*
X72183590Y-28856528D01*
X73599000Y-39136429D02*
X71932900Y-40802529D01*
X72183590Y-28856528D02*
X73599000Y-30271937D01*
X69477000Y-41482220D02*
X69477000Y-43745979D01*
X70081550Y-44350529D02*
X71697470Y-44350529D01*
X72164500Y-46138029D02*
X71750000Y-46552529D01*
X71697470Y-44350529D02*
X72164500Y-44817559D01*
X71932900Y-40802529D02*
X70156691Y-40802529D01*
%TO.N,Net-(U1-G)*%
X62920000Y-23532529D02*
X63000000Y-23452529D01*
X62920000Y-27182529D02*
X62920000Y-23532529D01*
%TO.N,Net-(U2-a)*%
X73776000Y-47265593D02*
X73488064Y-47553529D01*
X71776000Y-27881838D02*
X74000000Y-30105837D01*
X73776000Y-45294859D02*
X73776000Y-47265593D01*
X71068962Y-21802529D02*
X71776000Y-22509567D01*
X74000000Y-30105837D02*
X74000000Y-39302529D01*
X72160936Y-47202529D02*
X70725000Y-47202529D01*
X72000000Y-43518859D02*
X73776000Y-45294859D01*
X72511936Y-47553529D02*
X72160936Y-47202529D01*
X71776000Y-22509567D02*
X71776000Y-27881838D01*
X74000000Y-39302529D02*
X72000000Y-41302529D01*
X73488064Y-47553529D02*
X72511936Y-47553529D01*
X72000000Y-41302529D02*
X72000000Y-43518859D01*
X71000000Y-21802529D02*
X71068962Y-21802529D01*
%TO.N,Net-(U1-A)*%
X70540000Y-25262529D02*
X70540000Y-27182529D01*
X71000000Y-24802529D02*
X70540000Y-25262529D01*
X71000000Y-23802529D02*
X71000000Y-24802529D01*
%TO.N,Net-(U2-e)*%
X70725000Y-49802529D02*
X68109403Y-49802529D01*
X69668468Y-21802529D02*
X69000000Y-21802529D01*
X68109403Y-49802529D02*
X68043761Y-49868171D01*
X70177000Y-24474059D02*
X70177000Y-22311061D01*
X70177000Y-22311061D02*
X69668468Y-21802529D01*
%TO.N,Net-(U1-E)*%
X64947530Y-29203529D02*
X64256866Y-29894193D01*
X66937000Y-28275938D02*
X66009409Y-29203529D01*
X66937000Y-25515529D02*
X66937000Y-27802529D01*
X66009409Y-29203529D02*
X65677209Y-29203529D01*
X66937000Y-27802529D02*
X66937000Y-28275938D01*
X65677209Y-29203529D02*
X64947530Y-29203529D01*
X69000000Y-23452529D02*
X66937000Y-25515529D01*
%TO.N,Net-(U2-b)*%
X68605398Y-46735846D02*
X69722081Y-47852529D01*
X67854242Y-46735846D02*
X68605398Y-46735846D01*
X73000000Y-20802529D02*
X73000000Y-22152529D01*
X69722081Y-47852529D02*
X70725000Y-47852529D01*
%TO.N,Net-(U1-B)*%
X73080000Y-23882529D02*
X73000000Y-23802529D01*
X73080000Y-27182529D02*
X73080000Y-23882529D01*
%TO.N,Net-(U2-f)*%
X70725000Y-45902529D02*
X71608121Y-45902529D01*
X65125398Y-21802529D02*
X65000000Y-21802529D01*
X65243803Y-21802529D02*
X65000000Y-21802529D01*
X71000000Y-40401529D02*
X71766800Y-40401529D01*
X73031246Y-30271283D02*
X72163492Y-29403529D01*
X69990591Y-40401529D02*
X71000000Y-40401529D01*
X71763500Y-44983659D02*
X71531370Y-44751529D01*
X73198000Y-30438037D02*
X73031246Y-30271283D01*
X67369162Y-29403529D02*
X67013550Y-29047917D01*
X69915450Y-44751529D02*
X69076000Y-43912079D01*
X69076000Y-43878529D02*
X69063000Y-43865529D01*
X69063000Y-41329120D02*
X69990591Y-40401529D01*
X72682900Y-39485429D02*
X73198000Y-38970329D01*
X73198000Y-38970329D02*
X73198000Y-37302529D01*
X73198000Y-37302529D02*
X73198000Y-30438037D01*
X69063000Y-43865529D02*
X69063000Y-42302529D01*
X71766800Y-40401529D02*
X72682900Y-39485429D01*
X72163492Y-29403529D02*
X67369162Y-29403529D01*
X71763500Y-45747150D02*
X71763500Y-44983659D01*
X69076000Y-43912079D02*
X69076000Y-43878529D01*
X65000000Y-21802529D02*
X65000000Y-20902529D01*
X69063000Y-42302529D02*
X69063000Y-41329120D01*
X71608121Y-45902529D02*
X71763500Y-45747150D01*
X71531370Y-44751529D02*
X69915450Y-44751529D01*
%TO.N,Net-(U1-F)*%
X65460000Y-27182529D02*
X65460000Y-25262529D01*
X65000000Y-24802529D02*
X65000000Y-23452529D01*
X65460000Y-25262529D02*
X65000000Y-24802529D01*
%TO.N,Net-(U1-D)*%
X66523000Y-23859393D02*
X66929864Y-23452529D01*
X65843309Y-28802529D02*
X66523000Y-28122838D01*
X64500000Y-28802529D02*
X65843309Y-28802529D01*
X66523000Y-28122838D02*
X66523000Y-23859393D01*
X63500000Y-30802529D02*
X63500000Y-29802529D01*
X66929864Y-23452529D02*
X67000000Y-23452529D01*
X63500000Y-29802529D02*
X64500000Y-28802529D01*
%TO.N,/B*%
X68099000Y-37471529D02*
X65831000Y-37471529D01*
X64397000Y-38905529D02*
X64397000Y-43699529D01*
X64397000Y-43699529D02*
X65000000Y-44302529D01*
X65831000Y-37471529D02*
X64397000Y-38905529D01*
X65000000Y-44302529D02*
X65000000Y-45252529D01*
X69250000Y-38622529D02*
X68099000Y-37471529D01*
%TO.N,/C*%
X66400000Y-45902529D02*
X65000000Y-45902529D01*
X66710000Y-38622529D02*
X66710000Y-45592529D01*
X66710000Y-45592529D02*
X66400000Y-45902529D01*
%TO.N,/D*%
X66500000Y-48502529D02*
X65000000Y-48502529D01*
%TO.N,/A*%
X67100000Y-47002529D02*
X67100000Y-48752472D01*
X66699943Y-49152529D02*
X65000000Y-49152529D01*
X67100000Y-48752472D02*
X66699943Y-49152529D01*
%TO.N,Net-(U2-d)*%
X69776000Y-24025116D02*
X69776000Y-23039465D01*
X69577000Y-24224116D02*
X69776000Y-24025116D01*
X69776000Y-23039465D02*
X69488064Y-22751529D01*
X67949000Y-22751529D02*
X67000000Y-21802529D01*
X67804237Y-49152529D02*
X67768663Y-49116955D01*
X69750000Y-24895588D02*
X69577000Y-24722588D01*
X69763000Y-25538500D02*
X69750000Y-25525500D01*
X69577000Y-24722588D02*
X69577000Y-24224116D01*
X70725000Y-49152529D02*
X67804237Y-49152529D01*
X69488064Y-22751529D02*
X67949000Y-22751529D01*
X69750000Y-25525500D02*
X69750000Y-24895588D01*
%TD*%
%TA.AperFunction,Conductor*%
%TO.N,GND*%
G36*
X73003522Y-18303281D02*
G01*
X73028505Y-18305067D01*
X73206345Y-18317787D01*
X73220308Y-18319794D01*
X73415549Y-18362266D01*
X73429089Y-18366242D01*
X73616288Y-18436063D01*
X73629122Y-18441924D01*
X73804479Y-18537677D01*
X73816358Y-18545311D01*
X73976292Y-18665036D01*
X73986968Y-18674286D01*
X74128242Y-18815560D01*
X74137492Y-18826236D01*
X74257217Y-18986170D01*
X74264853Y-18998052D01*
X74360600Y-19173398D01*
X74366468Y-19186247D01*
X74436284Y-19373433D01*
X74440264Y-19386986D01*
X74482732Y-19582210D01*
X74484742Y-19596191D01*
X74499248Y-19799005D01*
X74499500Y-19806068D01*
X74499500Y-29801582D01*
X74480593Y-29859773D01*
X74431093Y-29895737D01*
X74369907Y-29895737D01*
X74325339Y-29864241D01*
X74325068Y-29864513D01*
X74323486Y-29862931D01*
X74321962Y-29861854D01*
X74320487Y-29859932D01*
X74320481Y-29859926D01*
X74320480Y-29859924D01*
X73333077Y-28872522D01*
X73305301Y-28818006D01*
X73314872Y-28757574D01*
X73358137Y-28714309D01*
X73383768Y-28705421D01*
X73389920Y-28704198D01*
X73583282Y-28624104D01*
X73757304Y-28507827D01*
X73905298Y-28359833D01*
X74021575Y-28185811D01*
X74101669Y-27992449D01*
X74142500Y-27787176D01*
X74142500Y-26577882D01*
X74101669Y-26372609D01*
X74021575Y-26179247D01*
X73905298Y-26005225D01*
X73757304Y-25857231D01*
X73757300Y-25857228D01*
X73583279Y-25740951D01*
X73541613Y-25723692D01*
X73495088Y-25683955D01*
X73480500Y-25632229D01*
X73480500Y-24173452D01*
X73499407Y-24115261D01*
X73520171Y-24094199D01*
X73529424Y-24087272D01*
X73632546Y-24010075D01*
X73718796Y-23894860D01*
X73769091Y-23760012D01*
X73775500Y-23700402D01*
X73775499Y-23204657D01*
X73769091Y-23145046D01*
X73752488Y-23100530D01*
X73718797Y-23010199D01*
X73632549Y-22894987D01*
X73632548Y-22894986D01*
X73632546Y-22894983D01*
X73632541Y-22894979D01*
X73517329Y-22808731D01*
X73382488Y-22758439D01*
X73382483Y-22758438D01*
X73382481Y-22758437D01*
X73382477Y-22758437D01*
X73351249Y-22755079D01*
X73322873Y-22752029D01*
X73322870Y-22752029D01*
X72677133Y-22752029D01*
X72677129Y-22752029D01*
X72677128Y-22752030D01*
X72669949Y-22752801D01*
X72617519Y-22758437D01*
X72617514Y-22758438D01*
X72482670Y-22808731D01*
X72367458Y-22894979D01*
X72367450Y-22894987D01*
X72354753Y-22911949D01*
X72304744Y-22947202D01*
X72243565Y-22946328D01*
X72194584Y-22909660D01*
X72176500Y-22852620D01*
X72176500Y-22574751D01*
X72176500Y-22562297D01*
X72176501Y-22562294D01*
X72176501Y-22456840D01*
X72160404Y-22396768D01*
X72159638Y-22388293D01*
X72164634Y-22366360D01*
X72165811Y-22343900D01*
X72171293Y-22337130D01*
X72173228Y-22328636D01*
X72190160Y-22313829D01*
X72204315Y-22296350D01*
X72212729Y-22294095D01*
X72219288Y-22288360D01*
X72241691Y-22286334D01*
X72263415Y-22280513D01*
X72271547Y-22283634D01*
X72280224Y-22282850D01*
X72299537Y-22294377D01*
X72320537Y-22302438D01*
X72330662Y-22312955D01*
X72332762Y-22314209D01*
X72333476Y-22315879D01*
X72337489Y-22320047D01*
X72367454Y-22360075D01*
X72367457Y-22360077D01*
X72367458Y-22360078D01*
X72482670Y-22446326D01*
X72617511Y-22496618D01*
X72617512Y-22496618D01*
X72617517Y-22496620D01*
X72677127Y-22503029D01*
X72779554Y-22503028D01*
X72829054Y-22516291D01*
X72845413Y-22525736D01*
X72947273Y-22553029D01*
X72947275Y-22553029D01*
X73052725Y-22553029D01*
X73052727Y-22553029D01*
X73154587Y-22525736D01*
X73170945Y-22516291D01*
X73220445Y-22503028D01*
X73322867Y-22503028D01*
X73322872Y-22503028D01*
X73382483Y-22496620D01*
X73489139Y-22456840D01*
X73517329Y-22446326D01*
X73517329Y-22446325D01*
X73517331Y-22446325D01*
X73632546Y-22360075D01*
X73718796Y-22244860D01*
X73733973Y-22204170D01*
X73769089Y-22110017D01*
X73769090Y-22110014D01*
X73769091Y-22110012D01*
X73775500Y-22050402D01*
X73775499Y-21554657D01*
X73769091Y-21495046D01*
X73769089Y-21495040D01*
X73718797Y-21360199D01*
X73632549Y-21244987D01*
X73632548Y-21244986D01*
X73632546Y-21244983D01*
X73567012Y-21195924D01*
X73531760Y-21145917D01*
X73532634Y-21084737D01*
X73540606Y-21067171D01*
X73559577Y-21034313D01*
X73600500Y-20881586D01*
X73600500Y-20723472D01*
X73559577Y-20570745D01*
X73480520Y-20433813D01*
X73368716Y-20322009D01*
X73231784Y-20242952D01*
X73079057Y-20202029D01*
X72920943Y-20202029D01*
X72768216Y-20242952D01*
X72631284Y-20322009D01*
X72519480Y-20433813D01*
X72440423Y-20570745D01*
X72399500Y-20723472D01*
X72399500Y-20881586D01*
X72440423Y-21034313D01*
X72440424Y-21034314D01*
X72440423Y-21034314D01*
X72459394Y-21067173D01*
X72472114Y-21127022D01*
X72447227Y-21182917D01*
X72432986Y-21195925D01*
X72367458Y-21244979D01*
X72367450Y-21244987D01*
X72281202Y-21360199D01*
X72230910Y-21495040D01*
X72230908Y-21495051D01*
X72224500Y-21554658D01*
X72224500Y-22050395D01*
X72224501Y-22050399D01*
X72230908Y-22110009D01*
X72230908Y-22110010D01*
X72243228Y-22143041D01*
X72245847Y-22204170D01*
X72212035Y-22255164D01*
X72154707Y-22276545D01*
X72095760Y-22260146D01*
X72080470Y-22247644D01*
X72021913Y-22189087D01*
X72021910Y-22189085D01*
X71804495Y-21971670D01*
X71776718Y-21917153D01*
X71775499Y-21901666D01*
X71775499Y-21554662D01*
X71775499Y-21554657D01*
X71769091Y-21495046D01*
X71769089Y-21495040D01*
X71718797Y-21360199D01*
X71632549Y-21244987D01*
X71632548Y-21244986D01*
X71632546Y-21244983D01*
X71600704Y-21221146D01*
X71517329Y-21158731D01*
X71382488Y-21108439D01*
X71382483Y-21108438D01*
X71382481Y-21108437D01*
X71382477Y-21108437D01*
X71351249Y-21105079D01*
X71322873Y-21102029D01*
X71322870Y-21102029D01*
X70677133Y-21102029D01*
X70677129Y-21102029D01*
X70677128Y-21102030D01*
X70669949Y-21102801D01*
X70617519Y-21108437D01*
X70617514Y-21108438D01*
X70482670Y-21158731D01*
X70367458Y-21244979D01*
X70367450Y-21244987D01*
X70281202Y-21360199D01*
X70230910Y-21495040D01*
X70230908Y-21495051D01*
X70224499Y-21554659D01*
X70224358Y-21557306D01*
X70223173Y-21557242D01*
X70205593Y-21611351D01*
X70156093Y-21647315D01*
X70094907Y-21647315D01*
X70055497Y-21623164D01*
X69914381Y-21482049D01*
X69914376Y-21482045D01*
X69823059Y-21429323D01*
X69823057Y-21429322D01*
X69785160Y-21419167D01*
X69733846Y-21385842D01*
X69722619Y-21366177D01*
X69722189Y-21366412D01*
X69718795Y-21360197D01*
X69632549Y-21244987D01*
X69632548Y-21244986D01*
X69632546Y-21244983D01*
X69600704Y-21221146D01*
X69517329Y-21158731D01*
X69382488Y-21108439D01*
X69382483Y-21108438D01*
X69382481Y-21108437D01*
X69382477Y-21108437D01*
X69351249Y-21105079D01*
X69322873Y-21102029D01*
X69322870Y-21102029D01*
X68677133Y-21102029D01*
X68677129Y-21102029D01*
X68677128Y-21102030D01*
X68669949Y-21102801D01*
X68617519Y-21108437D01*
X68617514Y-21108438D01*
X68482670Y-21158731D01*
X68367458Y-21244979D01*
X68367450Y-21244987D01*
X68281202Y-21360199D01*
X68230910Y-21495040D01*
X68230908Y-21495051D01*
X68224500Y-21554658D01*
X68224500Y-22050395D01*
X68224501Y-22050399D01*
X68230908Y-22110009D01*
X68230909Y-22110014D01*
X68270974Y-22217433D01*
X68273594Y-22278562D01*
X68239783Y-22329557D01*
X68182455Y-22350938D01*
X68178216Y-22351029D01*
X68155900Y-22351029D01*
X68097709Y-22332122D01*
X68085896Y-22322033D01*
X67804495Y-22040632D01*
X67776718Y-21986115D01*
X67775499Y-21970628D01*
X67775499Y-21554662D01*
X67775499Y-21554657D01*
X67769091Y-21495046D01*
X67769089Y-21495040D01*
X67718797Y-21360199D01*
X67632549Y-21244987D01*
X67632548Y-21244986D01*
X67632546Y-21244983D01*
X67600704Y-21221146D01*
X67517329Y-21158731D01*
X67382488Y-21108439D01*
X67382483Y-21108438D01*
X67382481Y-21108437D01*
X67382477Y-21108437D01*
X67351249Y-21105079D01*
X67322873Y-21102029D01*
X67322870Y-21102029D01*
X66677133Y-21102029D01*
X66677129Y-21102029D01*
X66677128Y-21102030D01*
X66669949Y-21102801D01*
X66617519Y-21108437D01*
X66617514Y-21108438D01*
X66482670Y-21158731D01*
X66367458Y-21244979D01*
X66367450Y-21244987D01*
X66281202Y-21360199D01*
X66230910Y-21495040D01*
X66230908Y-21495051D01*
X66224500Y-21554658D01*
X66224500Y-22050395D01*
X66224501Y-22050399D01*
X66230908Y-22110009D01*
X66230909Y-22110014D01*
X66281202Y-22244858D01*
X66360614Y-22350938D01*
X66367454Y-22360075D01*
X66367457Y-22360077D01*
X66367458Y-22360078D01*
X66482670Y-22446326D01*
X66617511Y-22496618D01*
X66617512Y-22496618D01*
X66617517Y-22496620D01*
X66677127Y-22503029D01*
X67093099Y-22503028D01*
X67151290Y-22521935D01*
X67163096Y-22532018D01*
X67214104Y-22583026D01*
X67241881Y-22637542D01*
X67232310Y-22697974D01*
X67189045Y-22741239D01*
X67144100Y-22752029D01*
X66677133Y-22752029D01*
X66677129Y-22752029D01*
X66677128Y-22752030D01*
X66669949Y-22752801D01*
X66617519Y-22758437D01*
X66617514Y-22758438D01*
X66482670Y-22808731D01*
X66367458Y-22894979D01*
X66367450Y-22894987D01*
X66281202Y-23010199D01*
X66230910Y-23145040D01*
X66230908Y-23145051D01*
X66224500Y-23204658D01*
X66224500Y-23551229D01*
X66205593Y-23609420D01*
X66204045Y-23611492D01*
X66202522Y-23613476D01*
X66149794Y-23704802D01*
X66149793Y-23704804D01*
X66149793Y-23704805D01*
X66129858Y-23779204D01*
X66129858Y-23779205D01*
X66129857Y-23779204D01*
X66122500Y-23806664D01*
X66122500Y-25662123D01*
X66103593Y-25720314D01*
X66054093Y-25756278D01*
X65992907Y-25756278D01*
X65981603Y-25751820D01*
X65974761Y-25748624D01*
X65963282Y-25740954D01*
X65919618Y-25722867D01*
X65917603Y-25721926D01*
X65896767Y-25702471D01*
X65875088Y-25683955D01*
X65874427Y-25681611D01*
X65872882Y-25680169D01*
X65870385Y-25667279D01*
X65860500Y-25632229D01*
X65860500Y-25209803D01*
X65860500Y-25209802D01*
X65837778Y-25125000D01*
X65837778Y-25124999D01*
X65837778Y-25124998D01*
X65835845Y-25117788D01*
X65833207Y-25107941D01*
X65830218Y-25102764D01*
X65780483Y-25016620D01*
X65780479Y-25016615D01*
X65429496Y-24665631D01*
X65401719Y-24611115D01*
X65400500Y-24595628D01*
X65400500Y-24208637D01*
X65419407Y-24150446D01*
X65464901Y-24115879D01*
X65517331Y-24096325D01*
X65632546Y-24010075D01*
X65718796Y-23894860D01*
X65769091Y-23760012D01*
X65775500Y-23700402D01*
X65775499Y-23204657D01*
X65769091Y-23145046D01*
X65752488Y-23100530D01*
X65718797Y-23010199D01*
X65632549Y-22894987D01*
X65632548Y-22894986D01*
X65632546Y-22894983D01*
X65632541Y-22894979D01*
X65517329Y-22808731D01*
X65382488Y-22758439D01*
X65382483Y-22758438D01*
X65382481Y-22758437D01*
X65382477Y-22758437D01*
X65351249Y-22755079D01*
X65322873Y-22752029D01*
X65322870Y-22752029D01*
X64677133Y-22752029D01*
X64677129Y-22752029D01*
X64677128Y-22752030D01*
X64669949Y-22752801D01*
X64617519Y-22758437D01*
X64617514Y-22758438D01*
X64482670Y-22808731D01*
X64367458Y-22894979D01*
X64367450Y-22894987D01*
X64281202Y-23010199D01*
X64230910Y-23145040D01*
X64230908Y-23145051D01*
X64224500Y-23204658D01*
X64224500Y-23700395D01*
X64224500Y-23700398D01*
X64224501Y-23700401D01*
X64226044Y-23714758D01*
X64230908Y-23760009D01*
X64230909Y-23760014D01*
X64281202Y-23894858D01*
X64366051Y-24008201D01*
X64367454Y-24010075D01*
X64367457Y-24010077D01*
X64367458Y-24010078D01*
X64482667Y-24096324D01*
X64482668Y-24096324D01*
X64482669Y-24096325D01*
X64535098Y-24115879D01*
X64583011Y-24153929D01*
X64599500Y-24208637D01*
X64599500Y-24749802D01*
X64599500Y-24855256D01*
X64623570Y-24945088D01*
X64626794Y-24957121D01*
X64679516Y-25048437D01*
X64679518Y-25048439D01*
X64679520Y-25048442D01*
X65030505Y-25399427D01*
X65058281Y-25453942D01*
X65059500Y-25469429D01*
X65059500Y-25632229D01*
X65040593Y-25690420D01*
X64998387Y-25723692D01*
X64956720Y-25740951D01*
X64782699Y-25857228D01*
X64634699Y-26005228D01*
X64518424Y-26179247D01*
X64438332Y-26372605D01*
X64438330Y-26372611D01*
X64397500Y-26577879D01*
X64397500Y-27787178D01*
X64438330Y-27992446D01*
X64438332Y-27992452D01*
X64518424Y-28185810D01*
X64559996Y-28248027D01*
X64576604Y-28306915D01*
X64555426Y-28364319D01*
X64504552Y-28398311D01*
X64477680Y-28402028D01*
X64447270Y-28402028D01*
X64345413Y-28429321D01*
X64345409Y-28429323D01*
X64254087Y-28482048D01*
X64179519Y-28556615D01*
X64179520Y-28556616D01*
X63179516Y-29556620D01*
X63126794Y-29647936D01*
X63111414Y-29705337D01*
X63099500Y-29749801D01*
X63099500Y-30312785D01*
X63080593Y-30370976D01*
X63070504Y-30382788D01*
X63019482Y-30433810D01*
X63019480Y-30433812D01*
X63019480Y-30433813D01*
X62940423Y-30570745D01*
X62899500Y-30723472D01*
X62899500Y-30881586D01*
X62940423Y-31034313D01*
X63019480Y-31171245D01*
X63131284Y-31283049D01*
X63268216Y-31362106D01*
X63420943Y-31403029D01*
X63420945Y-31403029D01*
X63483500Y-31403029D01*
X63541691Y-31421936D01*
X63577655Y-31471436D01*
X63582500Y-31502029D01*
X63582500Y-40761029D01*
X63563593Y-40819220D01*
X63514093Y-40855184D01*
X63483500Y-40860029D01*
X62113139Y-40860029D01*
X62113136Y-40860030D01*
X62088009Y-40862943D01*
X61985235Y-40908323D01*
X61905794Y-40987764D01*
X61860414Y-41090540D01*
X61857500Y-41115659D01*
X61857500Y-43729389D01*
X61857501Y-43729392D01*
X61860414Y-43754519D01*
X61879006Y-43796624D01*
X61905794Y-43857294D01*
X61985235Y-43936735D01*
X62088009Y-43982114D01*
X62113135Y-43985029D01*
X63483500Y-43985028D01*
X63541691Y-44003935D01*
X63577655Y-44053435D01*
X63582500Y-44084028D01*
X63582500Y-44812628D01*
X63563593Y-44870819D01*
X63553504Y-44882632D01*
X62679516Y-45756620D01*
X62626794Y-45847936D01*
X62599500Y-45949803D01*
X62599500Y-46004614D01*
X62580593Y-46062805D01*
X62536819Y-46096711D01*
X62490028Y-46115163D01*
X62490025Y-46115164D01*
X62490025Y-46115165D01*
X62463413Y-46135346D01*
X62374922Y-46202451D01*
X62287634Y-46317556D01*
X62234641Y-46451937D01*
X62224500Y-46536380D01*
X62224500Y-47068677D01*
X62234641Y-47153120D01*
X62287634Y-47287501D01*
X62287635Y-47287503D01*
X62287636Y-47287504D01*
X62374922Y-47402607D01*
X62420933Y-47437498D01*
X62455874Y-47487723D01*
X62454621Y-47548896D01*
X62417651Y-47597649D01*
X62411509Y-47601594D01*
X62363891Y-47629755D01*
X62252227Y-47741419D01*
X62171845Y-47877339D01*
X62127790Y-48028976D01*
X62127788Y-48028982D01*
X62125000Y-48064423D01*
X62125000Y-48102528D01*
X62125001Y-48102529D01*
X62901000Y-48102529D01*
X62959191Y-48121436D01*
X62995155Y-48170936D01*
X63000000Y-48201529D01*
X63000000Y-48352528D01*
X63000001Y-48352529D01*
X63151000Y-48352529D01*
X63209191Y-48371436D01*
X63245155Y-48420936D01*
X63250000Y-48451529D01*
X63250000Y-49202528D01*
X63250001Y-49202529D01*
X63313106Y-49202529D01*
X63348546Y-49199740D01*
X63348552Y-49199738D01*
X63500189Y-49155683D01*
X63636109Y-49075301D01*
X63747772Y-48963638D01*
X63788588Y-48894622D01*
X63834484Y-48854160D01*
X63895398Y-48848401D01*
X63948063Y-48879547D01*
X63972363Y-48935700D01*
X63971583Y-48960504D01*
X63962000Y-49021006D01*
X63962000Y-49284045D01*
X63971031Y-49341067D01*
X63961458Y-49401499D01*
X63952503Y-49415879D01*
X63919146Y-49460439D01*
X63868903Y-49595147D01*
X63868901Y-49595158D01*
X63868109Y-49602528D01*
X63868109Y-49602529D01*
X64143469Y-49602529D01*
X64188413Y-49613318D01*
X64237196Y-49638175D01*
X64330981Y-49653029D01*
X65669018Y-49653028D01*
X65669021Y-49653028D01*
X65669022Y-49653027D01*
X65720934Y-49644806D01*
X65762799Y-49638176D01*
X65762800Y-49638175D01*
X65762804Y-49638175D01*
X65811586Y-49613318D01*
X65856531Y-49602529D01*
X66131891Y-49602529D01*
X66146853Y-49585872D01*
X66199805Y-49555217D01*
X66220503Y-49553029D01*
X66752668Y-49553029D01*
X66752670Y-49553029D01*
X66854531Y-49525736D01*
X66854533Y-49525734D01*
X66854535Y-49525734D01*
X66945851Y-49473012D01*
X66945851Y-49473011D01*
X66945856Y-49473009D01*
X67066992Y-49351871D01*
X67121509Y-49324094D01*
X67181941Y-49333665D01*
X67222731Y-49372373D01*
X67288143Y-49485671D01*
X67399947Y-49597475D01*
X67416141Y-49606824D01*
X67457081Y-49652293D01*
X67463477Y-49713143D01*
X67462268Y-49718175D01*
X67443261Y-49789114D01*
X67443261Y-49947228D01*
X67484184Y-50099955D01*
X67563241Y-50236887D01*
X67675045Y-50348691D01*
X67811977Y-50427748D01*
X67964704Y-50468671D01*
X67964706Y-50468671D01*
X68122816Y-50468671D01*
X68122818Y-50468671D01*
X68275545Y-50427748D01*
X68412477Y-50348691D01*
X68524281Y-50236887D01*
X68524282Y-50236884D01*
X68528869Y-50232298D01*
X68531099Y-50234528D01*
X68570859Y-50207137D01*
X68599082Y-50203029D01*
X69780601Y-50203029D01*
X69838792Y-50221936D01*
X69847507Y-50229379D01*
X69849154Y-50230575D01*
X69849158Y-50230579D01*
X69962196Y-50288175D01*
X70055981Y-50303029D01*
X71394018Y-50303028D01*
X71394021Y-50303028D01*
X71394022Y-50303027D01*
X71440911Y-50295601D01*
X71487799Y-50288176D01*
X71487799Y-50288175D01*
X71487804Y-50288175D01*
X71600842Y-50230579D01*
X71690550Y-50140871D01*
X71748146Y-50027833D01*
X71763000Y-49934048D01*
X71762999Y-49671011D01*
X71753862Y-49613319D01*
X71748147Y-49577229D01*
X71748146Y-49577224D01*
X71720249Y-49522475D01*
X71710677Y-49462043D01*
X71720249Y-49432583D01*
X71736087Y-49401499D01*
X71748146Y-49377833D01*
X71763000Y-49284048D01*
X71762999Y-49021011D01*
X71762445Y-49017512D01*
X71772019Y-48957081D01*
X71815285Y-48913818D01*
X71860227Y-48903029D01*
X72200334Y-48903029D01*
X72258525Y-48921936D01*
X72279587Y-48942700D01*
X72338210Y-49021011D01*
X72367454Y-49060075D01*
X72367457Y-49060077D01*
X72367458Y-49060078D01*
X72482670Y-49146326D01*
X72617511Y-49196618D01*
X72617512Y-49196618D01*
X72617517Y-49196620D01*
X72677127Y-49203029D01*
X73322872Y-49203028D01*
X73382483Y-49196620D01*
X73492241Y-49155683D01*
X73517329Y-49146326D01*
X73517329Y-49146325D01*
X73517331Y-49146325D01*
X73632546Y-49060075D01*
X73718796Y-48944860D01*
X73722213Y-48935700D01*
X73769089Y-48810017D01*
X73769088Y-48810017D01*
X73769091Y-48810012D01*
X73775500Y-48750402D01*
X73775499Y-48254657D01*
X73769091Y-48195046D01*
X73760872Y-48173011D01*
X73718797Y-48060201D01*
X73718796Y-48060198D01*
X73692902Y-48025608D01*
X73673166Y-47967696D01*
X73691240Y-47909241D01*
X73722657Y-47880544D01*
X73733977Y-47874009D01*
X74096480Y-47511506D01*
X74107585Y-47492272D01*
X74149205Y-47420185D01*
X74149205Y-47420183D01*
X74149207Y-47420181D01*
X74176500Y-47318320D01*
X74176500Y-47212866D01*
X74176500Y-45242132D01*
X74158276Y-45174117D01*
X74158276Y-45174116D01*
X74158276Y-45174115D01*
X74149207Y-45140271D01*
X74149205Y-45140267D01*
X74096483Y-45048950D01*
X74096482Y-45048949D01*
X74096481Y-45048948D01*
X74096480Y-45048946D01*
X73188763Y-44141229D01*
X73160986Y-44086712D01*
X73170557Y-44026280D01*
X73213822Y-43983015D01*
X73239449Y-43974128D01*
X73389920Y-43944198D01*
X73583282Y-43864104D01*
X73757304Y-43747827D01*
X73905298Y-43599833D01*
X74021575Y-43425811D01*
X74101669Y-43232449D01*
X74142500Y-43027176D01*
X74142500Y-41817882D01*
X74101669Y-41612609D01*
X74021575Y-41419247D01*
X73905298Y-41245225D01*
X73757304Y-41097231D01*
X73757300Y-41097228D01*
X73583281Y-40980953D01*
X73389923Y-40900861D01*
X73389917Y-40900859D01*
X73219710Y-40867003D01*
X73166326Y-40837106D01*
X73140710Y-40781541D01*
X73152647Y-40721531D01*
X73169016Y-40699905D01*
X74320480Y-39548442D01*
X74320483Y-39548437D01*
X74321958Y-39546516D01*
X74323387Y-39545533D01*
X74325068Y-39543853D01*
X74325379Y-39544164D01*
X74372382Y-39511860D01*
X74433546Y-39513461D01*
X74482088Y-39550708D01*
X74499500Y-39606783D01*
X74499500Y-49798989D01*
X74499248Y-49806052D01*
X74484742Y-50008866D01*
X74482732Y-50022847D01*
X74440264Y-50218071D01*
X74436284Y-50231624D01*
X74366468Y-50418810D01*
X74360600Y-50431659D01*
X74264853Y-50607005D01*
X74257217Y-50618887D01*
X74137492Y-50778821D01*
X74128242Y-50789497D01*
X73986968Y-50930771D01*
X73976292Y-50940021D01*
X73816358Y-51059746D01*
X73804476Y-51067382D01*
X73629130Y-51163129D01*
X73616281Y-51168997D01*
X73429095Y-51238813D01*
X73415542Y-51242793D01*
X73220318Y-51285261D01*
X73206337Y-51287271D01*
X73003523Y-51301777D01*
X72996460Y-51302029D01*
X63003540Y-51302029D01*
X62996477Y-51301777D01*
X62793662Y-51287271D01*
X62779681Y-51285261D01*
X62584457Y-51242793D01*
X62570904Y-51238813D01*
X62383718Y-51168997D01*
X62370869Y-51163129D01*
X62195523Y-51067382D01*
X62183641Y-51059746D01*
X62023707Y-50940021D01*
X62013031Y-50930771D01*
X61871757Y-50789497D01*
X61862507Y-50778821D01*
X61742782Y-50618887D01*
X61735146Y-50607005D01*
X61702815Y-50547795D01*
X61639395Y-50431651D01*
X61633534Y-50418817D01*
X61563713Y-50231618D01*
X61559737Y-50218078D01*
X61517265Y-50022837D01*
X61515258Y-50008878D01*
X61514804Y-50002529D01*
X63868109Y-50002529D01*
X63868901Y-50009899D01*
X63868903Y-50009910D01*
X63919146Y-50144617D01*
X63919147Y-50144619D01*
X64005307Y-50259713D01*
X64005315Y-50259721D01*
X64120409Y-50345881D01*
X64120411Y-50345882D01*
X64255118Y-50396125D01*
X64255129Y-50396127D01*
X64314676Y-50402529D01*
X64799999Y-50402529D01*
X64800000Y-50402528D01*
X64800000Y-50002530D01*
X65200000Y-50002530D01*
X65200000Y-50402528D01*
X65200001Y-50402529D01*
X65685324Y-50402529D01*
X65744870Y-50396127D01*
X65744881Y-50396125D01*
X65879588Y-50345882D01*
X65879590Y-50345881D01*
X65994684Y-50259721D01*
X65994692Y-50259713D01*
X66080852Y-50144619D01*
X66080853Y-50144617D01*
X66131096Y-50009910D01*
X66131098Y-50009899D01*
X66131891Y-50002529D01*
X65200001Y-50002529D01*
X65200000Y-50002530D01*
X64800000Y-50002530D01*
X64799999Y-50002529D01*
X63868109Y-50002529D01*
X61514804Y-50002529D01*
X61500752Y-49806051D01*
X61500500Y-49798989D01*
X61500500Y-48602530D01*
X62125000Y-48602530D01*
X62125000Y-48640634D01*
X62127788Y-48676075D01*
X62127790Y-48676081D01*
X62171845Y-48827718D01*
X62252227Y-48963638D01*
X62363890Y-49075301D01*
X62499810Y-49155683D01*
X62651447Y-49199738D01*
X62651453Y-49199740D01*
X62686894Y-49202529D01*
X62749999Y-49202529D01*
X62750000Y-49202528D01*
X62750000Y-48602530D01*
X62749999Y-48602529D01*
X62125001Y-48602529D01*
X62125000Y-48602530D01*
X61500500Y-48602530D01*
X61500500Y-26577879D01*
X61857500Y-26577879D01*
X61857500Y-27787178D01*
X61898330Y-27992446D01*
X61898332Y-27992452D01*
X61978424Y-28185810D01*
X62066291Y-28317313D01*
X62094702Y-28359833D01*
X62242696Y-28507827D01*
X62416718Y-28624104D01*
X62610080Y-28704198D01*
X62815353Y-28745029D01*
X62815354Y-28745029D01*
X63024646Y-28745029D01*
X63024647Y-28745029D01*
X63229920Y-28704198D01*
X63423282Y-28624104D01*
X63597304Y-28507827D01*
X63745298Y-28359833D01*
X63861575Y-28185811D01*
X63941669Y-27992449D01*
X63982500Y-27787176D01*
X63982500Y-26577882D01*
X63941669Y-26372609D01*
X63861575Y-26179247D01*
X63745298Y-26005225D01*
X63597304Y-25857231D01*
X63597300Y-25857228D01*
X63423279Y-25740951D01*
X63381613Y-25723692D01*
X63335088Y-25683955D01*
X63320500Y-25632229D01*
X63320500Y-24238475D01*
X63339407Y-24180284D01*
X63384904Y-24145717D01*
X63517329Y-24096326D01*
X63517329Y-24096325D01*
X63517331Y-24096325D01*
X63632546Y-24010075D01*
X63718796Y-23894860D01*
X63769091Y-23760012D01*
X63775500Y-23700402D01*
X63775499Y-23204657D01*
X63769091Y-23145046D01*
X63752488Y-23100530D01*
X63718797Y-23010199D01*
X63632549Y-22894987D01*
X63632548Y-22894986D01*
X63632546Y-22894983D01*
X63632541Y-22894979D01*
X63517329Y-22808731D01*
X63382488Y-22758439D01*
X63382483Y-22758438D01*
X63382481Y-22758437D01*
X63382477Y-22758437D01*
X63351249Y-22755079D01*
X63322873Y-22752029D01*
X63322870Y-22752029D01*
X62677133Y-22752029D01*
X62677129Y-22752029D01*
X62677128Y-22752030D01*
X62669949Y-22752801D01*
X62617519Y-22758437D01*
X62617514Y-22758438D01*
X62482670Y-22808731D01*
X62367458Y-22894979D01*
X62367450Y-22894987D01*
X62281202Y-23010199D01*
X62230910Y-23145040D01*
X62230908Y-23145051D01*
X62224500Y-23204658D01*
X62224500Y-23700395D01*
X62224500Y-23700398D01*
X62224501Y-23700401D01*
X62226044Y-23714758D01*
X62230908Y-23760009D01*
X62230909Y-23760014D01*
X62281202Y-23894858D01*
X62366051Y-24008201D01*
X62367454Y-24010075D01*
X62367457Y-24010077D01*
X62367458Y-24010078D01*
X62479829Y-24094199D01*
X62515082Y-24144207D01*
X62519500Y-24173452D01*
X62519500Y-25632229D01*
X62500593Y-25690420D01*
X62458387Y-25723692D01*
X62416720Y-25740951D01*
X62242699Y-25857228D01*
X62094699Y-26005228D01*
X61978424Y-26179247D01*
X61898332Y-26372605D01*
X61898330Y-26372611D01*
X61857500Y-26577879D01*
X61500500Y-26577879D01*
X61500500Y-21554658D01*
X62224500Y-21554658D01*
X62224500Y-22050395D01*
X62224501Y-22050399D01*
X62230908Y-22110009D01*
X62230909Y-22110014D01*
X62281202Y-22244858D01*
X62360614Y-22350938D01*
X62367454Y-22360075D01*
X62367457Y-22360077D01*
X62367458Y-22360078D01*
X62482670Y-22446326D01*
X62617511Y-22496618D01*
X62617512Y-22496618D01*
X62617517Y-22496620D01*
X62677127Y-22503029D01*
X63322872Y-22503028D01*
X63382483Y-22496620D01*
X63489139Y-22456840D01*
X63517329Y-22446326D01*
X63517329Y-22446325D01*
X63517331Y-22446325D01*
X63632546Y-22360075D01*
X63718796Y-22244860D01*
X63733973Y-22204170D01*
X63769089Y-22110017D01*
X63769090Y-22110014D01*
X63769091Y-22110012D01*
X63775500Y-22050402D01*
X63775499Y-21554658D01*
X64224500Y-21554658D01*
X64224500Y-22050395D01*
X64224501Y-22050399D01*
X64230908Y-22110009D01*
X64230909Y-22110014D01*
X64281202Y-22244858D01*
X64360614Y-22350938D01*
X64367454Y-22360075D01*
X64367457Y-22360077D01*
X64367458Y-22360078D01*
X64482670Y-22446326D01*
X64617511Y-22496618D01*
X64617512Y-22496618D01*
X64617517Y-22496620D01*
X64677127Y-22503029D01*
X65322872Y-22503028D01*
X65382483Y-22496620D01*
X65489139Y-22456840D01*
X65517329Y-22446326D01*
X65517329Y-22446325D01*
X65517331Y-22446325D01*
X65632546Y-22360075D01*
X65718796Y-22244860D01*
X65733973Y-22204170D01*
X65769089Y-22110017D01*
X65769090Y-22110014D01*
X65769091Y-22110012D01*
X65775500Y-22050402D01*
X65775499Y-21554657D01*
X65769091Y-21495046D01*
X65769089Y-21495040D01*
X65718797Y-21360199D01*
X65632549Y-21244987D01*
X65632548Y-21244986D01*
X65632546Y-21244983D01*
X65600707Y-21221148D01*
X65565455Y-21171141D01*
X65564410Y-21116275D01*
X65600500Y-20981586D01*
X65600500Y-20823472D01*
X65559577Y-20670745D01*
X65480520Y-20533813D01*
X65368716Y-20422009D01*
X65231784Y-20342952D01*
X65079057Y-20302029D01*
X64920943Y-20302029D01*
X64768216Y-20342952D01*
X64631284Y-20422009D01*
X64519480Y-20533813D01*
X64440423Y-20670745D01*
X64399500Y-20823472D01*
X64399500Y-20981586D01*
X64422433Y-21067173D01*
X64435589Y-21116272D01*
X64432386Y-21177374D01*
X64399293Y-21221146D01*
X64367461Y-21244976D01*
X64367450Y-21244987D01*
X64281202Y-21360199D01*
X64230910Y-21495040D01*
X64230908Y-21495051D01*
X64224500Y-21554658D01*
X63775499Y-21554658D01*
X63775499Y-21554657D01*
X63769091Y-21495046D01*
X63769089Y-21495040D01*
X63718797Y-21360199D01*
X63632549Y-21244987D01*
X63632548Y-21244986D01*
X63632546Y-21244983D01*
X63567012Y-21195924D01*
X63531760Y-21145917D01*
X63532634Y-21084737D01*
X63540606Y-21067171D01*
X63559577Y-21034313D01*
X63600500Y-20881586D01*
X63600500Y-20723472D01*
X63559577Y-20570745D01*
X63480520Y-20433813D01*
X63368716Y-20322009D01*
X63231784Y-20242952D01*
X63079057Y-20202029D01*
X62920943Y-20202029D01*
X62768216Y-20242952D01*
X62631284Y-20322009D01*
X62519480Y-20433813D01*
X62440423Y-20570745D01*
X62399500Y-20723472D01*
X62399500Y-20881586D01*
X62440423Y-21034313D01*
X62440424Y-21034314D01*
X62440423Y-21034314D01*
X62459394Y-21067173D01*
X62472114Y-21127022D01*
X62447227Y-21182917D01*
X62432986Y-21195925D01*
X62367458Y-21244979D01*
X62367450Y-21244987D01*
X62281202Y-21360199D01*
X62230910Y-21495040D01*
X62230908Y-21495051D01*
X62224500Y-21554658D01*
X61500500Y-21554658D01*
X61500500Y-19806068D01*
X61500752Y-19799006D01*
X61505213Y-19736637D01*
X61515258Y-19596181D01*
X61517265Y-19582222D01*
X61559737Y-19386976D01*
X61563711Y-19373443D01*
X61633536Y-19186234D01*
X61639392Y-19173411D01*
X61735151Y-18998042D01*
X61742775Y-18986179D01*
X61862512Y-18826229D01*
X61871750Y-18815567D01*
X62013038Y-18674279D01*
X62023700Y-18665041D01*
X62183650Y-18545304D01*
X62195513Y-18537680D01*
X62370882Y-18441921D01*
X62383705Y-18436065D01*
X62570914Y-18366240D01*
X62584447Y-18362266D01*
X62779693Y-18319794D01*
X62793652Y-18317787D01*
X62973568Y-18304919D01*
X62996478Y-18303281D01*
X63003540Y-18303029D01*
X63065892Y-18303029D01*
X72934108Y-18303029D01*
X72996460Y-18303029D01*
X73003522Y-18303281D01*
G37*
%TD.AperFunction*%
%TA.AperFunction,Conductor*%
G36*
X66435976Y-46954877D02*
G01*
X66483527Y-46993380D01*
X66499500Y-47047302D01*
X66499500Y-47081586D01*
X66540423Y-47234313D01*
X66619480Y-47371245D01*
X66670505Y-47422270D01*
X66698281Y-47476785D01*
X66699500Y-47492272D01*
X66699500Y-47805282D01*
X66680593Y-47863473D01*
X66631093Y-47899437D01*
X66585784Y-47900627D01*
X66585489Y-47902876D01*
X66579057Y-47902029D01*
X66420943Y-47902029D01*
X66268216Y-47942952D01*
X66131284Y-48022009D01*
X66129758Y-48023534D01*
X66128380Y-48024236D01*
X66126134Y-48025960D01*
X66125814Y-48025543D01*
X66075244Y-48051310D01*
X66059757Y-48052529D01*
X65856531Y-48052529D01*
X65811586Y-48041739D01*
X65762803Y-48016882D01*
X65669022Y-48002029D01*
X65099000Y-48002029D01*
X65040809Y-47983122D01*
X65004845Y-47933622D01*
X65000000Y-47903029D01*
X65000000Y-47802028D01*
X65018907Y-47743837D01*
X65068407Y-47707873D01*
X65098997Y-47703028D01*
X65669018Y-47703028D01*
X65669021Y-47703028D01*
X65669022Y-47703027D01*
X65715911Y-47695601D01*
X65762799Y-47688176D01*
X65762800Y-47688175D01*
X65762804Y-47688175D01*
X65811586Y-47663318D01*
X65856531Y-47652529D01*
X66131891Y-47652529D01*
X66131890Y-47652528D01*
X66131098Y-47645158D01*
X66131096Y-47645147D01*
X66080854Y-47510441D01*
X66047497Y-47465882D01*
X66027760Y-47407967D01*
X66028969Y-47391065D01*
X66038000Y-47334048D01*
X66037999Y-47071011D01*
X66037445Y-47067512D01*
X66047019Y-47007081D01*
X66090285Y-46963818D01*
X66135227Y-46953029D01*
X66369825Y-46953029D01*
X66369827Y-46953029D01*
X66374876Y-46951676D01*
X66435976Y-46954877D01*
G37*
%TD.AperFunction*%
%TA.AperFunction,Conductor*%
G36*
X69611822Y-45660193D02*
G01*
X69634718Y-45663820D01*
X69640365Y-45669467D01*
X69647963Y-45671936D01*
X69661591Y-45690694D01*
X69677982Y-45707085D01*
X69679447Y-45715270D01*
X69683927Y-45721436D01*
X69686573Y-45755063D01*
X69688097Y-45763574D01*
X69687865Y-45765545D01*
X69687000Y-45771010D01*
X69687000Y-45772915D01*
X69687000Y-45772916D01*
X69687000Y-46034049D01*
X69687001Y-46034050D01*
X69701852Y-46127828D01*
X69701853Y-46127831D01*
X69729751Y-46182586D01*
X69739321Y-46243018D01*
X69729751Y-46272472D01*
X69701854Y-46327225D01*
X69687000Y-46421007D01*
X69687000Y-46684049D01*
X69687001Y-46684050D01*
X69701852Y-46777828D01*
X69701853Y-46777831D01*
X69729751Y-46832586D01*
X69739321Y-46893018D01*
X69735584Y-46908460D01*
X69733203Y-46915696D01*
X69701854Y-46977225D01*
X69691531Y-47042398D01*
X69689040Y-47049974D01*
X69675448Y-47068540D01*
X69664999Y-47089048D01*
X69657720Y-47092756D01*
X69652898Y-47099344D01*
X69630989Y-47106375D01*
X69610482Y-47116824D01*
X69602415Y-47115546D01*
X69594640Y-47118042D01*
X69572779Y-47110852D01*
X69550050Y-47107252D01*
X69540303Y-47100171D01*
X69536518Y-47098926D01*
X69534238Y-47095764D01*
X69524992Y-47089047D01*
X69213773Y-46777828D01*
X68851311Y-46415366D01*
X68851308Y-46415364D01*
X68851307Y-46415363D01*
X68851306Y-46415362D01*
X68759989Y-46362640D01*
X68759991Y-46362640D01*
X68720468Y-46352050D01*
X68658125Y-46335346D01*
X68658123Y-46335346D01*
X68343986Y-46335346D01*
X68285795Y-46316439D01*
X68273983Y-46306350D01*
X68222960Y-46255328D01*
X68222958Y-46255326D01*
X68086026Y-46176269D01*
X67933299Y-46135346D01*
X67775185Y-46135346D01*
X67663929Y-46165157D01*
X67622458Y-46176269D01*
X67485526Y-46255326D01*
X67373720Y-46367132D01*
X67368173Y-46376740D01*
X67322702Y-46417679D01*
X67261851Y-46424073D01*
X67256816Y-46422864D01*
X67230280Y-46415754D01*
X67178965Y-46382431D01*
X67157038Y-46325309D01*
X67172873Y-46266209D01*
X67185894Y-46250127D01*
X67753996Y-45682024D01*
X67808513Y-45654248D01*
X67824000Y-45653029D01*
X69589772Y-45653029D01*
X69611822Y-45660193D01*
G37*
%TD.AperFunction*%
%TA.AperFunction,Conductor*%
G36*
X68250000Y-44059416D02*
G01*
X68272104Y-44055916D01*
X68446050Y-43999397D01*
X68546697Y-43948115D01*
X68607129Y-43938543D01*
X68661646Y-43966320D01*
X68686592Y-44008292D01*
X68686944Y-44009485D01*
X68689793Y-44020117D01*
X68690386Y-44021145D01*
X68692284Y-44027572D01*
X68692273Y-44027952D01*
X68692961Y-44029978D01*
X68702793Y-44066669D01*
X68702794Y-44066670D01*
X68755516Y-44157987D01*
X68755518Y-44157989D01*
X68755520Y-44157992D01*
X69250558Y-44653029D01*
X69280554Y-44683025D01*
X69308331Y-44737542D01*
X69298760Y-44797974D01*
X69255495Y-44841239D01*
X69210550Y-44852029D01*
X67675906Y-44852029D01*
X67675890Y-44852028D01*
X67669827Y-44852028D01*
X67564373Y-44852028D01*
X67564370Y-44852028D01*
X67462513Y-44879321D01*
X67462509Y-44879323D01*
X67371187Y-44932048D01*
X67296619Y-45006615D01*
X67296620Y-45006616D01*
X67279504Y-45023732D01*
X67224987Y-45051509D01*
X67164555Y-45041938D01*
X67121290Y-44998673D01*
X67110500Y-44953728D01*
X67110500Y-43906878D01*
X67129407Y-43848687D01*
X67178907Y-43812723D01*
X67240093Y-43812723D01*
X67267691Y-43826785D01*
X67390981Y-43916361D01*
X67553951Y-43999398D01*
X67727895Y-44055916D01*
X67750000Y-44059416D01*
X67750000Y-42738215D01*
X67754394Y-42742609D01*
X67845606Y-42795270D01*
X67947339Y-42822529D01*
X68052661Y-42822529D01*
X68154394Y-42795270D01*
X68245606Y-42742609D01*
X68250000Y-42738215D01*
X68250000Y-44059416D01*
G37*
%TD.AperFunction*%
%TA.AperFunction,Conductor*%
G36*
X65405945Y-30667718D02*
G01*
X65449210Y-30710983D01*
X65458925Y-30751453D01*
X65460001Y-30752529D01*
X66276988Y-30752529D01*
X66244075Y-30809536D01*
X66210000Y-30936703D01*
X66210000Y-31068355D01*
X66244075Y-31195522D01*
X66276988Y-31252529D01*
X65460002Y-31252529D01*
X65460001Y-31252530D01*
X65460001Y-31884014D01*
X65474833Y-31977670D01*
X65474836Y-31977680D01*
X65532358Y-32090572D01*
X65621956Y-32180170D01*
X65734848Y-32237692D01*
X65734852Y-32237693D01*
X65828515Y-32252528D01*
X66332052Y-32252528D01*
X66390243Y-32271435D01*
X66426207Y-32320935D01*
X66426207Y-32382120D01*
X66390243Y-32431621D01*
X66362645Y-32445682D01*
X66268367Y-32476314D01*
X66268364Y-32476316D01*
X66107008Y-32558531D01*
X66089246Y-32571436D01*
X65960499Y-32664976D01*
X65832447Y-32793028D01*
X65779225Y-32866281D01*
X65726002Y-32939537D01*
X65643788Y-33100891D01*
X65587828Y-33273122D01*
X65559500Y-33451979D01*
X65559500Y-33633078D01*
X65587828Y-33811935D01*
X65587829Y-33811938D01*
X65643789Y-33984168D01*
X65726004Y-34145523D01*
X65832447Y-34292030D01*
X65960499Y-34420082D01*
X66107006Y-34526525D01*
X66268361Y-34608740D01*
X66440591Y-34664700D01*
X66512136Y-34676031D01*
X66619451Y-34693029D01*
X66619454Y-34693029D01*
X66800549Y-34693029D01*
X66889977Y-34678864D01*
X66979409Y-34664700D01*
X67151639Y-34608740D01*
X67312994Y-34526525D01*
X67459501Y-34420082D01*
X67587553Y-34292030D01*
X67693996Y-34145523D01*
X67776211Y-33984168D01*
X67832171Y-33811938D01*
X67860500Y-33633075D01*
X67860500Y-33451983D01*
X67860500Y-33451979D01*
X68099500Y-33451979D01*
X68099500Y-33633078D01*
X68127828Y-33811935D01*
X68127829Y-33811938D01*
X68183789Y-33984168D01*
X68266004Y-34145523D01*
X68372447Y-34292030D01*
X68500499Y-34420082D01*
X68647006Y-34526525D01*
X68808361Y-34608740D01*
X68980591Y-34664700D01*
X69052136Y-34676031D01*
X69159451Y-34693029D01*
X69159454Y-34693029D01*
X69340549Y-34693029D01*
X69429977Y-34678864D01*
X69519409Y-34664700D01*
X69691639Y-34608740D01*
X69852994Y-34526525D01*
X69999501Y-34420082D01*
X70127553Y-34292030D01*
X70233996Y-34145523D01*
X70316211Y-33984168D01*
X70372171Y-33811938D01*
X70400500Y-33633075D01*
X70400500Y-33451983D01*
X70400500Y-33451979D01*
X70379383Y-33318655D01*
X70372171Y-33273120D01*
X70316211Y-33100890D01*
X70233996Y-32939535D01*
X70134457Y-32802530D01*
X71125000Y-32802530D01*
X71125000Y-32840634D01*
X71127788Y-32876075D01*
X71127790Y-32876081D01*
X71171845Y-33027718D01*
X71252227Y-33163638D01*
X71363890Y-33275301D01*
X71499810Y-33355683D01*
X71651447Y-33399738D01*
X71651453Y-33399740D01*
X71686894Y-33402529D01*
X71749999Y-33402529D01*
X71750000Y-33402528D01*
X71750000Y-32802530D01*
X71749999Y-32802529D01*
X71125001Y-32802529D01*
X71125000Y-32802530D01*
X70134457Y-32802530D01*
X70127553Y-32793028D01*
X69999501Y-32664976D01*
X69852994Y-32558533D01*
X69852993Y-32558532D01*
X69852991Y-32558531D01*
X69691637Y-32476317D01*
X69519406Y-32420357D01*
X69340549Y-32392029D01*
X69340546Y-32392029D01*
X69159454Y-32392029D01*
X69159451Y-32392029D01*
X68980593Y-32420357D01*
X68808362Y-32476317D01*
X68647008Y-32558531D01*
X68629246Y-32571436D01*
X68500499Y-32664976D01*
X68372447Y-32793028D01*
X68319225Y-32866281D01*
X68266002Y-32939537D01*
X68183788Y-33100891D01*
X68127828Y-33273122D01*
X68099500Y-33451979D01*
X67860500Y-33451979D01*
X67839383Y-33318655D01*
X67832171Y-33273120D01*
X67776211Y-33100890D01*
X67693996Y-32939535D01*
X67587553Y-32793028D01*
X67459501Y-32664976D01*
X67312994Y-32558533D01*
X67312993Y-32558532D01*
X67312991Y-32558531D01*
X67151637Y-32476317D01*
X67057353Y-32445683D01*
X67007853Y-32409719D01*
X66988945Y-32351529D01*
X67007852Y-32293338D01*
X67057352Y-32257374D01*
X67087945Y-32252528D01*
X67591483Y-32252528D01*
X67591485Y-32252527D01*
X67685141Y-32237695D01*
X67685151Y-32237692D01*
X67798043Y-32180170D01*
X67887641Y-32090572D01*
X67945163Y-31977680D01*
X67945164Y-31977676D01*
X67959999Y-31884013D01*
X67959999Y-31380476D01*
X67978906Y-31322285D01*
X68028406Y-31286321D01*
X68089591Y-31286321D01*
X68139092Y-31322285D01*
X68153154Y-31349883D01*
X68183789Y-31444168D01*
X68264517Y-31602606D01*
X68266004Y-31605523D01*
X68372447Y-31752030D01*
X68500499Y-31880082D01*
X68647006Y-31986525D01*
X68808361Y-32068740D01*
X68980591Y-32124700D01*
X69052136Y-32136031D01*
X69159451Y-32153029D01*
X69159454Y-32153029D01*
X69340549Y-32153029D01*
X69429977Y-32138864D01*
X69519409Y-32124700D01*
X69691639Y-32068740D01*
X69852994Y-31986525D01*
X69999501Y-31880082D01*
X70127553Y-31752030D01*
X70233996Y-31605523D01*
X70309630Y-31457082D01*
X70352894Y-31413819D01*
X70397839Y-31403029D01*
X71186944Y-31403029D01*
X71245135Y-31421936D01*
X71279041Y-31465710D01*
X71287634Y-31487500D01*
X71287636Y-31487504D01*
X71374922Y-31602607D01*
X71420933Y-31637498D01*
X71455874Y-31687723D01*
X71454621Y-31748896D01*
X71417651Y-31797649D01*
X71411509Y-31801594D01*
X71363891Y-31829755D01*
X71252227Y-31941419D01*
X71171845Y-32077339D01*
X71127790Y-32228976D01*
X71127788Y-32228982D01*
X71125000Y-32264423D01*
X71125000Y-32302528D01*
X71125001Y-32302529D01*
X71901000Y-32302529D01*
X71959191Y-32321436D01*
X71995155Y-32370936D01*
X72000000Y-32401529D01*
X72000000Y-32552528D01*
X72000001Y-32552529D01*
X72151000Y-32552529D01*
X72209191Y-32571436D01*
X72245155Y-32620936D01*
X72250000Y-32651529D01*
X72250000Y-33402528D01*
X72250001Y-33402529D01*
X72313106Y-33402529D01*
X72348546Y-33399740D01*
X72348552Y-33399738D01*
X72500189Y-33355683D01*
X72636108Y-33275302D01*
X72637815Y-33273978D01*
X72639175Y-33273487D01*
X72641472Y-33272130D01*
X72641730Y-33272567D01*
X72695382Y-33253247D01*
X72754139Y-33270312D01*
X72791644Y-33318655D01*
X72797500Y-33352198D01*
X72797500Y-38763428D01*
X72778593Y-38821619D01*
X72768504Y-38833432D01*
X71629903Y-39972033D01*
X71575386Y-39999810D01*
X71559899Y-40001029D01*
X71052727Y-40001029D01*
X70043318Y-40001029D01*
X69937864Y-40001029D01*
X69848031Y-40025099D01*
X69835999Y-40028323D01*
X69797582Y-40050503D01*
X69797576Y-40050507D01*
X69790341Y-40054685D01*
X69744678Y-40081049D01*
X69670111Y-40155616D01*
X69670109Y-40155618D01*
X69666857Y-40158869D01*
X69666852Y-40158874D01*
X68835621Y-40990105D01*
X68781104Y-41017882D01*
X68720672Y-41008311D01*
X68707426Y-41000194D01*
X68609018Y-40928696D01*
X68446046Y-40845658D01*
X68272102Y-40789141D01*
X68250000Y-40785640D01*
X68250000Y-42106843D01*
X68245606Y-42102449D01*
X68154394Y-42049788D01*
X68052661Y-42022529D01*
X67947339Y-42022529D01*
X67845606Y-42049788D01*
X67754394Y-42102449D01*
X67750000Y-42106843D01*
X67750000Y-40785640D01*
X67727897Y-40789141D01*
X67553953Y-40845658D01*
X67390980Y-40928696D01*
X67267691Y-41018272D01*
X67209500Y-41037179D01*
X67151309Y-41018272D01*
X67115345Y-40968771D01*
X67110500Y-40938179D01*
X67110500Y-39770368D01*
X67129407Y-39712177D01*
X67164552Y-39682160D01*
X67312994Y-39606525D01*
X67459501Y-39500082D01*
X67587553Y-39372030D01*
X67693996Y-39225523D01*
X67776211Y-39064168D01*
X67832171Y-38891938D01*
X67860500Y-38713075D01*
X67860500Y-38531983D01*
X67860500Y-38531979D01*
X67832171Y-38353122D01*
X67832171Y-38353120D01*
X67776211Y-38180890D01*
X67693996Y-38019535D01*
X67692230Y-38016069D01*
X67694097Y-38015117D01*
X67681700Y-37963098D01*
X67705208Y-37906609D01*
X67757430Y-37874726D01*
X67780382Y-37872029D01*
X67892099Y-37872029D01*
X67950290Y-37890936D01*
X67962103Y-37901025D01*
X68155158Y-38094080D01*
X68182935Y-38148597D01*
X68179309Y-38194676D01*
X68127828Y-38353122D01*
X68099500Y-38531979D01*
X68099500Y-38713078D01*
X68127828Y-38891935D01*
X68180562Y-39054238D01*
X68183789Y-39064168D01*
X68266004Y-39225523D01*
X68372447Y-39372030D01*
X68500499Y-39500082D01*
X68647006Y-39606525D01*
X68808361Y-39688740D01*
X68980591Y-39744700D01*
X69052136Y-39756031D01*
X69159451Y-39773029D01*
X69159454Y-39773029D01*
X69340549Y-39773029D01*
X69429977Y-39758864D01*
X69519409Y-39744700D01*
X69691639Y-39688740D01*
X69852994Y-39606525D01*
X69999501Y-39500082D01*
X70127553Y-39372030D01*
X70233996Y-39225523D01*
X70316211Y-39064168D01*
X70372171Y-38891938D01*
X70400500Y-38713075D01*
X70400500Y-38531983D01*
X70400500Y-38531979D01*
X70372171Y-38353122D01*
X70372171Y-38353120D01*
X70316211Y-38180890D01*
X70233996Y-38019535D01*
X70127553Y-37873028D01*
X69999501Y-37744976D01*
X69852994Y-37638533D01*
X69852993Y-37638532D01*
X69852991Y-37638531D01*
X69691637Y-37556317D01*
X69519406Y-37500357D01*
X69340549Y-37472029D01*
X69340546Y-37472029D01*
X69159454Y-37472029D01*
X69159451Y-37472029D01*
X68980593Y-37500357D01*
X68822147Y-37551838D01*
X68760962Y-37551837D01*
X68721552Y-37527687D01*
X68344913Y-37151049D01*
X68344908Y-37151045D01*
X68253591Y-37098323D01*
X68253593Y-37098323D01*
X68214070Y-37087733D01*
X68151727Y-37071029D01*
X68151725Y-37071029D01*
X67587561Y-37071029D01*
X67529370Y-37052122D01*
X67493406Y-37002622D01*
X67493406Y-36941436D01*
X67517555Y-36902027D01*
X67587553Y-36832030D01*
X67693996Y-36685523D01*
X67776211Y-36524168D01*
X67832171Y-36351938D01*
X67860500Y-36173075D01*
X67860500Y-35991983D01*
X67860500Y-35991979D01*
X68099500Y-35991979D01*
X68099500Y-36173078D01*
X68127828Y-36351935D01*
X68127829Y-36351938D01*
X68183789Y-36524168D01*
X68266004Y-36685523D01*
X68372447Y-36832030D01*
X68500499Y-36960082D01*
X68647006Y-37066525D01*
X68808361Y-37148740D01*
X68980591Y-37204700D01*
X69052136Y-37216031D01*
X69159451Y-37233029D01*
X69159454Y-37233029D01*
X69340549Y-37233029D01*
X69429977Y-37218864D01*
X69519409Y-37204700D01*
X69691639Y-37148740D01*
X69852994Y-37066525D01*
X69999501Y-36960082D01*
X70127553Y-36832030D01*
X70233996Y-36685523D01*
X70316211Y-36524168D01*
X70372171Y-36351938D01*
X70400500Y-36173075D01*
X70400500Y-35991983D01*
X70400500Y-35991979D01*
X70372171Y-35813122D01*
X70372171Y-35813120D01*
X70316211Y-35640890D01*
X70233996Y-35479535D01*
X70127553Y-35333028D01*
X69999501Y-35204976D01*
X69852994Y-35098533D01*
X69852993Y-35098532D01*
X69852991Y-35098531D01*
X69691637Y-35016317D01*
X69519406Y-34960357D01*
X69340549Y-34932029D01*
X69340546Y-34932029D01*
X69159454Y-34932029D01*
X69159451Y-34932029D01*
X68980593Y-34960357D01*
X68808362Y-35016317D01*
X68647008Y-35098531D01*
X68573752Y-35151754D01*
X68500499Y-35204976D01*
X68372447Y-35333028D01*
X68319225Y-35406281D01*
X68266002Y-35479537D01*
X68183788Y-35640891D01*
X68127828Y-35813122D01*
X68099500Y-35991979D01*
X67860500Y-35991979D01*
X67832171Y-35813122D01*
X67832171Y-35813120D01*
X67776211Y-35640890D01*
X67693996Y-35479535D01*
X67587553Y-35333028D01*
X67459501Y-35204976D01*
X67312994Y-35098533D01*
X67312993Y-35098532D01*
X67312991Y-35098531D01*
X67151637Y-35016317D01*
X66979406Y-34960357D01*
X66800549Y-34932029D01*
X66800546Y-34932029D01*
X66619454Y-34932029D01*
X66619451Y-34932029D01*
X66440593Y-34960357D01*
X66268362Y-35016317D01*
X66107008Y-35098531D01*
X66033752Y-35151754D01*
X65960499Y-35204976D01*
X65832447Y-35333028D01*
X65779225Y-35406281D01*
X65726002Y-35479537D01*
X65643788Y-35640891D01*
X65587828Y-35813122D01*
X65559500Y-35991979D01*
X65559500Y-36173078D01*
X65587828Y-36351935D01*
X65587829Y-36351938D01*
X65643789Y-36524168D01*
X65726004Y-36685523D01*
X65832447Y-36832030D01*
X65902444Y-36902027D01*
X65930220Y-36956542D01*
X65920649Y-37016974D01*
X65877384Y-37060239D01*
X65832439Y-37071029D01*
X65778273Y-37071029D01*
X65715929Y-37087733D01*
X65676407Y-37098323D01*
X65585091Y-37151045D01*
X64552504Y-38183632D01*
X64497987Y-38211409D01*
X64437555Y-38201838D01*
X64394290Y-38158573D01*
X64383500Y-38113628D01*
X64383500Y-31634428D01*
X64402407Y-31576237D01*
X64412490Y-31564430D01*
X65290998Y-30685922D01*
X65345513Y-30658147D01*
X65405945Y-30667718D01*
G37*
%TD.AperFunction*%
%TA.AperFunction,Conductor*%
G36*
X69135691Y-24171935D02*
G01*
X69171655Y-24221435D01*
X69176500Y-24252028D01*
X69176500Y-24669861D01*
X69176500Y-24775315D01*
X69197919Y-24855254D01*
X69203794Y-24877180D01*
X69256516Y-24968496D01*
X69256518Y-24968498D01*
X69256520Y-24968501D01*
X69300139Y-25012120D01*
X69327915Y-25066635D01*
X69318344Y-25127067D01*
X69300139Y-25152124D01*
X69282482Y-25169781D01*
X69282480Y-25169783D01*
X69282480Y-25169784D01*
X69203423Y-25306716D01*
X69162500Y-25459443D01*
X69162500Y-25617557D01*
X69203423Y-25770284D01*
X69282480Y-25907216D01*
X69394284Y-26019020D01*
X69531216Y-26098077D01*
X69531218Y-26098077D01*
X69536836Y-26101321D01*
X69535315Y-26103955D01*
X69572338Y-26135571D01*
X69586625Y-26195065D01*
X69579394Y-26225190D01*
X69518332Y-26372605D01*
X69518330Y-26372611D01*
X69477500Y-26577879D01*
X69477500Y-27787178D01*
X69518330Y-27992446D01*
X69518332Y-27992452D01*
X69598424Y-28185810D01*
X69676077Y-28302027D01*
X69692685Y-28360915D01*
X69671507Y-28418319D01*
X69620633Y-28452311D01*
X69593761Y-28456028D01*
X69154906Y-28456028D01*
X69096715Y-28437121D01*
X69084908Y-28427037D01*
X69029698Y-28371827D01*
X69001923Y-28317313D01*
X69011494Y-28256881D01*
X69011495Y-28256880D01*
X69076868Y-28128579D01*
X69133389Y-27954626D01*
X69162000Y-27773983D01*
X69162000Y-27432530D01*
X69161999Y-27432529D01*
X68315686Y-27432529D01*
X68320080Y-27428135D01*
X68372741Y-27336923D01*
X68400000Y-27235190D01*
X68400000Y-27129868D01*
X68372741Y-27028135D01*
X68320080Y-26936923D01*
X68315686Y-26932529D01*
X69161999Y-26932529D01*
X69162000Y-26932528D01*
X69162000Y-26591074D01*
X69133389Y-26410431D01*
X69076869Y-26236480D01*
X68993832Y-26073510D01*
X68886324Y-25925538D01*
X68756990Y-25796204D01*
X68609018Y-25688696D01*
X68446046Y-25605658D01*
X68272102Y-25549141D01*
X68250000Y-25545640D01*
X68250000Y-26866843D01*
X68245606Y-26862449D01*
X68154394Y-26809788D01*
X68052661Y-26782529D01*
X67947339Y-26782529D01*
X67845606Y-26809788D01*
X67754394Y-26862449D01*
X67750000Y-26866843D01*
X67750000Y-25571351D01*
X67675140Y-25546395D01*
X67672199Y-25544224D01*
X67668555Y-25543937D01*
X67647839Y-25526240D01*
X67625916Y-25510055D01*
X67624812Y-25506568D01*
X67622034Y-25504195D01*
X67615676Y-25477700D01*
X67607454Y-25451721D01*
X67608609Y-25448253D01*
X67607757Y-25444699D01*
X67618187Y-25419524D01*
X67626805Y-25393677D01*
X67629778Y-25391551D01*
X67631178Y-25388173D01*
X67636437Y-25382483D01*
X68836896Y-24182023D01*
X68891413Y-24154247D01*
X68906900Y-24153028D01*
X69077500Y-24153028D01*
X69135691Y-24171935D01*
G37*
%TD.AperFunction*%
%TA.AperFunction,Conductor*%
G36*
X72305383Y-23958282D02*
G01*
X72306093Y-23958282D01*
X72316474Y-23965712D01*
X72351840Y-23989404D01*
X72353336Y-23991216D01*
X72367454Y-24010075D01*
X72371260Y-24012924D01*
X72482670Y-24096326D01*
X72615096Y-24145717D01*
X72663011Y-24183767D01*
X72679500Y-24238475D01*
X72679500Y-25632229D01*
X72660593Y-25690420D01*
X72618387Y-25723692D01*
X72576720Y-25740951D01*
X72402699Y-25857228D01*
X72402696Y-25857230D01*
X72402696Y-25857231D01*
X72345501Y-25914425D01*
X72290987Y-25942201D01*
X72230555Y-25932630D01*
X72187290Y-25889365D01*
X72176500Y-25844420D01*
X72176500Y-24052437D01*
X72185748Y-24023971D01*
X72194585Y-23995395D01*
X72195177Y-23994951D01*
X72195407Y-23994246D01*
X72219648Y-23976633D01*
X72243567Y-23958729D01*
X72244306Y-23958718D01*
X72244907Y-23958282D01*
X72274856Y-23958282D01*
X72304746Y-23957855D01*
X72305383Y-23958282D01*
G37*
%TD.AperFunction*%
%TD*%
M02*
